<svg xmlns="http://www.w3.org/2000/svg" viewBox="0 0 226.5 84.61">
    <defs>
        <style>.cls-1,.cls-2{fill:none;stroke:#000;stroke-linecap:round;stroke-linejoin:round;}.cls-1{stroke-width:3.7px;}.cls-2{stroke-width:3.4px;}</style>
    </defs>

    <g id="Layer_2" data-name="Layer 2">
        <g id="Layer_1-2" data-name="Layer 1">
            <path class="cls-1" d="M85.32,11.41S73,7.67,63.23,20.36C52.78,32.89,49.55,33.34,27.39,38c-23,4.59-39.83,22.17-7.86,25.31C66.74,67.87,50.13,96.19,96.21,75c25.94-13.79,30.58-2.19,43.61.79,13.3,3,66.22,5.93,78-2,11.09-8.17,10.05-33.44-12.95-41.1-21.68-7.57-34.47-3.21-30.66-19.77,1.13-6.18-10.19-14-24-9.76-15.3,4.47-18,6.52-25.2,3.85C117.94,4.25,109,11.28,85.32,11.41Z"/>
            <path class="cls-1" d="M47.19,40.89S22.37,42.4,22.65,48.55c.6,6.16,5.78,6.94,19.15,10.48C55.73,62.6,70,72.73,79.1,71.1c9-1.64,17.77-13.81,31.77-11.8,14.3,2,26.28,10.12,46.48,9.27,20-.85,43.87,6.31,52.37-9.84,6-16.28-14.87-15.86-32.89-23.39-20.78-9.42-8.35-22.51-19.58-22.6s-10.76,3.41-23.94,2.65-8-3.8-20.42.18c-13.11,3.94-25,1.9-30.66,3.38S73.8,22.29,67.06,29.49C60,36.66,68.13,39.06,47.19,40.89Z"/>
            <path class="cls-1" d="M57.66,46.94s-19.83-.44-12.78,3.18c7.66,3.65,13.69,4.43,28.87,7.46,15.93,3.05,15.18-5.9,32.5-4.93,17.54,1,17-1.79,30.91,4.31,15.17,6.16,48.34,6.19,47.25-.39-1.31-6.6-20.12-7.61-25-19.34C154.76,25.5,157.63,22.36,147,24c-11,1.57-13.79,1.24-18.93-.77-4.93-2-9,.23-19.55,1-10.72.81-14.25-2.49-21.12,3.19-7.48,5.65-8.89,9.45-14.53,13.41C66.93,44.78,65.1,46.82,57.66,46.94Z"/>
            <path class="cls-1" d="M89.08,37.18s-1.91,2.12-7.3,4.94c-5.73,2.8-16.16,6-5,6.47s14.44-3.31,22.83-3.23,9.88,3.89,19.56,1c5-1.64,16.67.28,28.92,3.48,13.22,3.24,5.58-12.1-.38-15.43-5.48-3.32-3.94-4.37-11.3-4.31s-8.78-1.75-12.65-2.08-3.89,2.4-10.21,2S97.82,27.81,89.08,37.18Z"/>
            <path class="cls-2" d="M105.14,36.66s-4.46.05-6.25,1.38-1.65,1.53,4.33,1.27c5.79-.25,16.11.82,19.4.76,8.31-.14,25.57-2,9.4-4.87-3.81-.82-8.75,0-13.58.28C113.37,35.8,107.32,36.12,105.14,36.66Z"/>
        </g>
    </g>
</svg>