<?xml version="1.0" encoding="UTF-8"?><svg xmlns="http://www.w3.org/2000/svg" viewBox="0 0 492.12 68.14"><defs><style>.d{fill:#211e1f;stroke:#000;stroke-linecap:round;stroke-linejoin:round;}</style></defs><g id="a"/><g id="b"><g id="c"><g><path class="d" d="M.5,34.07C.5,15.17,11.84,.5,31.01,.5c15.03,0,24.12,8.64,25.83,20.52h-7.92c-1.53-8.01-7.92-13.5-18.09-13.5-14.13,0-22.05,11.43-22.05,26.55s8.73,26.37,22.14,26.37c12.15,0,17.91-8.28,18.72-17.73h8.01c-.09,6.39-3.15,13.59-7.74,18.09-4.5,4.41-11.07,6.75-19.26,6.75C12.38,67.55,.5,53.6,.5,34.07Z"/><path class="d" d="M59,34.07C59,14.81,71.06,.5,90.5,.5s31.5,14.31,31.5,33.57-12.06,33.57-31.5,33.57-31.5-14.31-31.5-33.57Zm54.72,0c0-15.12-8.1-26.55-23.22-26.55s-23.22,11.43-23.22,26.55,8.1,26.46,23.22,26.46,23.22-11.34,23.22-26.46Z"/><path class="d" d="M126.32,1.94h10.35l20.88,53.46h.18L178.43,1.94h10.53V66.29h-7.74V13.37h-.18s-1.71,5.04-2.88,8.1l-17.64,44.82h-6.21l-17.64-44.82c-1.26-3.24-2.88-8.1-2.88-8.1h-.18v52.92h-7.29V1.94Z"/><path class="d" d="M195.71,1.94h10.35l20.88,53.46h.18L247.82,1.94h10.53V66.29h-7.74V13.37h-.18s-1.71,5.04-2.88,8.1l-17.64,44.82h-6.21l-17.64-44.82c-1.26-3.24-2.88-8.1-2.88-8.1h-.18v52.92h-7.29V1.94Z"/><path class="d" d="M264.02,45.5V1.94h8.1V44.69c0,10.98,6.21,15.66,16.83,15.66s16.29-4.68,16.29-15.66V1.94h8.1V45.5c0,15.57-10.89,21.78-24.66,21.78s-24.66-6.21-24.66-21.78Z"/><path class="d" d="M319.01,1.94h8.55l29.34,44.73c2.16,3.33,4.68,8.28,4.68,8.28h.18V1.94h7.56V66.29h-8.28l-29.52-44.82c-2.07-3.15-4.77-8.01-4.77-8.01h-.18v52.83h-7.56V1.94Z"/><path class="d" d="M376.25,1.94h8.1V66.29h-8.1V1.94Z"/><path class="d" d="M387.23,1.94h50.94v7.11h-21.42v57.24h-8.1V9.05h-21.42V1.94Z"/><path class="d" d="M459.94,39.02L436.63,1.94h9l18.45,30.6h.18L482.98,1.94h8.64l-23.58,37.26v27.09h-8.1v-27.27Z"/></g></g></g></svg>