<svg xmlns="http://www.w3.org/2000/svg" viewBox="0 0 225.4 133.95"><defs><style>.cls-1{fill:none;stroke:#000;stroke-miterlimit:10;stroke-width:2.7px;}</style></defs><g id="Layer_2" data-name="Layer 2"><g id="Layer_1-2" data-name="Layer 1"><polygon class="cls-1" points="2.18 132.6 67.63 1.35 223.21 1.35 212.36 23.12 190.59 23.12 179.74 44.88 157.32 44.88 146.13 67.31 124.37 67.31 113.84 88.41 92.08 88.41 80.57 111.5 58.14 111.5 47.62 132.6 2.18 132.6"/><polyline class="cls-1" points="212.36 23.12 201.51 44.88 179.74 44.88"/><polyline class="cls-1" points="91.3 1.35 25.85 132.6 47.62 132.6 113.07 1.35 135.49 1.35 92.08 88.41 113.84 88.41 157.26 1.35 179.02 1.35 157.32 44.88 179.74 44.88 201.45 1.35"/><polyline class="cls-1" points="24.18 88.5 12.71 111.5 80.57 111.5 92.08 88.41 24.22 88.41 34.74 67.31 146.13 67.31 157.32 44.88 45.92 44.88 56.78 23.12 212.36 23.12"/></g></g></svg>