<svg xmlns="http://www.w3.org/2000/svg" viewBox="0 0 310.06 187.28"><defs><style>.cls-1{fill:#231f20;stroke:#231f20;stroke-width:0.7px;}.cls-1,.cls-2{stroke-linecap:round;stroke-linejoin:round;}.cls-2{fill:none;stroke:#000;stroke-width:3.7px;}</style></defs><g id="Layer_2" data-name="Layer 2"><g id="Layer_1-2" data-name="Layer 1"><path class="cls-1" d="M32.33,2.3H28.49v15h3.84v2H26.52V.35h5.81Z"/><path class="cls-1" d="M49.53,7.32h-2V6.17A1.74,1.74,0,0,0,45.83,4.4H44.15a1.76,1.76,0,0,0-1.76,1.77v7.24a1.77,1.77,0,0,0,1.76,1.76h1.68a1.75,1.75,0,0,0,1.75-1.76V11.25H44.43v-2h5.1v4.12a3.71,3.71,0,0,1-3.7,3.74H44.15a3.75,3.75,0,0,1-3.71-3.74V6.17a3.72,3.72,0,0,1,3.71-3.72h1.68a3.68,3.68,0,0,1,3.7,3.72Z"/><path class="cls-1" d="M63.45.35v18.9H57.64v-2H61.5V2.3H57.64V.35Z"/><path class="cls-1" d="M174,7.32h-1.95V6.17a1.73,1.73,0,0,0-1.74-1.77h-1.68a1.76,1.76,0,0,0-1.76,1.77v7.24a1.76,1.76,0,0,0,1.76,1.76h1.68a1.75,1.75,0,0,0,1.74-1.76V11.25h-3.15v-2H174v4.12a3.7,3.7,0,0,1-3.69,3.74h-1.68a3.76,3.76,0,0,1-3.72-3.74V6.17a3.73,3.73,0,0,1,3.72-3.72h1.68A3.68,3.68,0,0,1,174,6.17Z"/><path class="cls-1" d="M189.58,7.43a3.68,3.68,0,0,1-2.8,3.59l2.8,6.13h-2.15l-2.73-6h-2.26v6h-2V2.45h5.4a3.68,3.68,0,0,1,3.7,3.72Zm-2-1.26a1.73,1.73,0,0,0-1.74-1.77h-3.44V9.17h3.44a1.72,1.72,0,0,0,1.74-1.74Z"/><path class="cls-1" d="M199.76,17.15A3.76,3.76,0,0,1,196,13.41V6.17a3.73,3.73,0,0,1,3.72-3.72h1.68a3.68,3.68,0,0,1,3.7,3.72v7.24a3.71,3.71,0,0,1-3.7,3.74Zm1.68-2a1.75,1.75,0,0,0,1.74-1.76V6.17a1.73,1.73,0,0,0-1.74-1.77h-1.68A1.76,1.76,0,0,0,198,6.17v7.24a1.77,1.77,0,0,0,1.76,1.76Z"/><path class="cls-1" d="M220.7,2.45v11a3.74,3.74,0,0,1-3.7,3.74h-1.68a3.72,3.72,0,0,1-3.71-3.74v-11h1.95v11a1.77,1.77,0,0,0,1.76,1.76H217a1.75,1.75,0,0,0,1.74-1.76v-11Z"/><path class="cls-1" d="M234.3,2.45h2v14.7h-2.92L229.12,5.49V17.15h-2V2.45h2.91L234.3,14.1Z"/><path class="cls-1" d="M251.82,6.17v7.24a3.74,3.74,0,0,1-3.7,3.74h-5.39V2.45h5.39A3.71,3.71,0,0,1,251.82,6.17Zm-1.95,0a1.75,1.75,0,0,0-1.75-1.77h-3.44V15.17h3.44a1.75,1.75,0,0,0,1.75-1.76Z"/><path class="cls-1" d="M267.38,4.4h-7.14v4h6.3v2h-6.3v4.78h7.14v2h-9.09V2.45h9.09Z"/><path class="cls-1" d="M282.94,6.17v7.24a3.74,3.74,0,0,1-3.7,3.74h-5.39V2.45h5.39A3.71,3.71,0,0,1,282.94,6.17Zm-1.95,0a1.75,1.75,0,0,0-1.75-1.77H275.8V15.17h3.44A1.75,1.75,0,0,0,281,13.41Z"/><path class="cls-2" d="M120.93,60.52s-15.29-7.49-31,10.12C72.94,88,68.72,88,39.68,90.7,10.13,93.38-17.52,118.29,20,129.1c58.43,15.83,24.31,56.22,94.89,32,40.79-15.75,42.86,2.42,59.95,9.29,17.65,6.91,93.68,21.15,114.94,12.1,20.58-9.3,29.51-44.89-3.54-61-30.71-15.91-51.18-12.65-40.83-35.64,3.32-8.6-11.94-22.92-33.33-20.37-23,2.66-27.24,3.72-36.8-2.11C166.13,57.62,152.44,66.06,120.93,60.52Z"/><path class="cls-2" d="M59.94,97.13s-24.52-5.51-26,4c-1.25,9.51,4.7,11.63,19.8,19.34,16.12,7.78,30.63,25.1,43,24.29s27.81-16.82,45.87-11.32c18.74,5.54,23.79,22.66,52.65,25.17,29.21,2.54,60.83,16.64,82.24-3.21,18-20.07-8.46-27.77-33.05-41.85-28.23-17.62-5.48-32.38-22.85-35.43-16.95-3-17.06,2-36.28-2.37-18.54-4.3-10.75-8.68-28.88-6-18.53,2.61-26.11-4-33.71-3.08S106.3,67.9,96.53,77.26C86.18,86.58,86.79,98.59,59.94,97.13Z"/><path class="cls-2" d="M71.17,104.37s-24.33-4.92-16.88,3c8.32,8,15.67,10.55,34.19,18.76,20,8.31,22.07-7,45.43-1.77,24.4,5.33,24.72.67,42.4,13.55,19.47,13,69.74,19.84,71.91,9.5,1.71-10.38-27.49-16.28-29.73-35.76-2.73-19.51,3.29-23.52-14.85-24.14s-22.26-1.93-29.71-6.66c-7.1-4.71-13.73-2.18-29.42-3.75-15.42-1.54-19.86-8.24-30.15-.17-11.07,8-13.74,14.33-22.07,20C83.58,102.54,80.67,105.72,71.17,104.37Z"/><path class="cls-2" d="M110.33,92.67s-3.23,3.56-11.44,7.67c-8.64,4.09-23.53,8.11-9.11,11.18,15.1,3.11,21-3.18,32.8-1.22,12.18,2,12.9,9.15,28.64,6.08,8.45-1.72,26,4.24,44.28,12.41,20,8.27,16.55-18.55,7.81-25.62-8.12-7-4.87-8.28-17.95-10.42-12.66-2.11-14.46-5.64-20.83-7.41-6.17-1.76-6.95,3-16.86.52C138.2,83.36,124.59,77.19,110.33,92.67Z"/><path class="cls-2" d="M128.7,89.6S116.81,92.85,113.63,97s-1.1,4.64,8.8,5.77C132.69,104,138,107.05,144.27,108c16.91,2.47,64.2,2.91,28.38-11.54-8.17-4.16-11-3.88-20.94-5.15C142.25,90.06,132.12,88.58,128.7,89.6Z"/><path class="cls-2" d="M137.69,94s-9.66-.84-11,2.6c-.49,3.17,17.31,5.58,24.43,4.87,6.69-.74,14.65-3.15,6.39-4.6C150.2,95.42,137.69,94,137.69,94Z"/></g></g></svg>