<svg xmlns="http://www.w3.org/2000/svg" viewBox="0 0 305.54 268.88"><defs><style>.cls-1,.cls-2{fill:#231f20;}.cls-1{stroke:#231f20;stroke-width:0.7px;}.cls-1,.cls-3,.cls-4,.cls-5{stroke-linecap:round;stroke-linejoin:round;}.cls-3,.cls-4,.cls-5,.cls-6{fill:none;stroke:#000;}.cls-3,.cls-6{stroke-width:4px;}.cls-4,.cls-5{stroke-width:3.3px;}.cls-5{stroke-dasharray:4.04 4.04;}.cls-6{stroke-miterlimit:10;}</style></defs><g id="Layer_2" data-name="Layer 2"><g id="Layer_1-2" data-name="Layer 1"><path class="cls-1" d="M6.17,2.3H2.32v15H6.17v2H.35V.35H6.17Z"/><path class="cls-1" d="M21.41,7.32V6.17A1.73,1.73,0,0,0,19.67,4.4H18a1.77,1.77,0,0,0-1.77,1.77v7.24A1.77,1.77,0,0,0,18,15.17h1.68a1.75,1.75,0,0,0,1.74-1.76V12.25h1.95v1.16a3.7,3.7,0,0,1-3.69,3.74H18a3.76,3.76,0,0,1-3.72-3.74V6.17A3.73,3.73,0,0,1,18,2.45h1.68a3.68,3.68,0,0,1,3.69,3.72V7.32Z"/><path class="cls-1" d="M37.29.35v18.9H31.47v-2h3.86V2.3H31.47V.35Z"/><path class="cls-1" d="M140.71,6.17V7.43a3.68,3.68,0,0,1-3.7,3.69h-3.44v6h-1.95V2.45H137A3.68,3.68,0,0,1,140.71,6.17Zm-2,0A1.74,1.74,0,0,0,137,4.4h-3.44V9.17H137a1.73,1.73,0,0,0,1.75-1.74Z"/><path class="cls-1" d="M152.72,2.45l3.55,9.87v4.83h-2V13.66h-5.19v3.49h-1.95V12.32l3.55-9.87Zm-1,3.07-2.22,6.19H154l-2.22-6.19Z"/><path class="cls-1" d="M171.83,4.4h-3.57V17.15h-1.95V4.4h-3.57V2.45h9.09Z"/><path class="cls-1" d="M185.44,2.45h1.95v14.7h-1.95V10.37h-5.19v6.78H178.3V2.45h1.95v6h5.19Z"/><path class="cls-1" d="M203,4.4h-7.14V9.06h6.3v2h-6.3v6.13h-1.95V2.45H203Z"/><path class="cls-1" d="M218.51,4.4h-3.57V15.19h3.57v2h-9.09v-2H213V4.4h-3.57V2.45h9.09Z"/><path class="cls-1" d="M232.12,2.45h1.95v14.7h-2.92L226.93,5.49V17.15h-2V2.45h2.92l4.22,11.65Z"/><path class="cls-1" d="M249.63,6.17v7.24a3.74,3.74,0,0,1-3.69,3.74h-5.4V2.45h5.4A3.71,3.71,0,0,1,249.63,6.17Zm-1.95,0a1.74,1.74,0,0,0-1.74-1.77h-3.45V15.17h3.45a1.75,1.75,0,0,0,1.74-1.76Z"/><circle class="cls-2" cx="51.02" cy="73.99" r="6.38"/><line class="cls-3" x1="12.86" y1="44.12" x2="237.86" y2="220.26"/><path class="cls-4" d="M204.38,194.44s-.59-.45-1.61-1.18"/><path class="cls-5" d="M199.42,191c-9.59-6.19-29.61-16.52-27.87,6.6,1.78,23.72-9.31,38.91-18.11,12.6l-9.39-23.43S101.84,79,93.73,52.77,74.06,41.26,75.19,64.71C76.37,89,53.9,75.36,45.35,69.33"/><path class="cls-4" d="M43.71,68.14c-1-.75-1.58-1.21-1.58-1.21"/><circle class="cls-2" cx="199.02" cy="189.86" r="6.38"/><line class="cls-6" x1="305.54" y1="266.88" x2="302.24" y2="266.88"/><circle cx="102.94" cy="138.72" r="5.44"/></g></g></svg>