<svg xmlns="http://www.w3.org/2000/svg" viewBox="0 0 241.56 262.51"><defs><style>.cls-1{fill:#231f20;stroke:#231f20;stroke-linecap:round;stroke-linejoin:round;stroke-width:0.7px;}.cls-2{fill:none;stroke-width:4.3px;}.cls-2,.cls-3{stroke:#000;stroke-miterlimit:10;}.cls-3{stroke-width:2px;}</style></defs><g id="Layer_2" data-name="Layer 2"><g id="Layer_1-2" data-name="Layer 1"><path class="cls-1" d="M6.17,2.3H2.32v15H6.17v2H.35V.35H6.17Z"/><path class="cls-1" d="M19.82,2.45l3.54,9.87v4.83H21.41V13.66H16.23v3.49h-2V12.32l3.55-9.87Zm-1,3.07-2.23,6.19h4.52L18.85,5.52Z"/><path class="cls-1" d="M37.29.35v18.9H31.47v-2h3.86V2.3H31.47V.35Z"/><path class="cls-1" d="M147.85,12.49v.94a3.7,3.7,0,0,1-3.7,3.72h-5.39V2.45h5a3.68,3.68,0,0,1,3.7,3.72V7a3.78,3.78,0,0,1-1,2.54A3.67,3.67,0,0,1,147.85,12.49ZM140.71,4.4V8.79h3A1.74,1.74,0,0,0,145.48,7V6.17a1.74,1.74,0,0,0-1.75-1.77Zm5.19,8.09a1.72,1.72,0,0,0-1.75-1.75h-3.44v4.45h3.44a1.73,1.73,0,0,0,1.75-1.76Z"/><path class="cls-1" d="M159.86,2.45l3.55,9.87v4.83h-1.95V13.66h-5.19v3.49h-2V12.32l3.55-9.87Zm-1,3.07-2.22,6.19h4.51L158.9,5.52Z"/><path class="cls-1" d="M171.83,15.19H179v2h-9.09V2.45h2Z"/><path class="cls-1" d="M191,2.45l3.55,9.87v4.83h-1.95V13.66h-5.19v3.49h-1.95V12.32L189,2.45Zm-1,3.07-2.22,6.19h4.51L190,5.52Z"/><path class="cls-1" d="M208.14,2.45h2v14.7h-2.92L203,5.49V17.15H201V2.45h2.92l4.22,11.65Z"/><path class="cls-1" d="M223.7,7.32V6.17A1.74,1.74,0,0,0,222,4.4h-1.68a1.77,1.77,0,0,0-1.77,1.77v7.24a1.77,1.77,0,0,0,1.77,1.76H222a1.75,1.75,0,0,0,1.74-1.76V12.25h2v1.16A3.71,3.71,0,0,1,222,17.15h-1.68a3.76,3.76,0,0,1-3.72-3.74V6.17a3.73,3.73,0,0,1,3.72-3.72H222a3.68,3.68,0,0,1,3.69,3.72V7.32Z"/><path class="cls-1" d="M241.21,4.4h-7.13v4h6.29v2h-6.29v4.78h7.13v2h-9.09V2.45h9.09Z"/><circle class="cls-2" cx="117.44" cy="150.5" r="109.86"/><circle class="cls-2" cx="117.44" cy="150.48" r="81.84"/><circle class="cls-3" cx="31.94" cy="82.57" r="6.99"/><circle class="cls-3" cx="169.36" cy="246.9" r="6.99"/><circle class="cls-3" cx="58.34" cy="208.18" r="7.64"/><circle class="cls-3" cx="221.99" cy="183.37" r="6.99"/><circle class="cls-3" cx="203.85" cy="82.57" r="6.99"/><circle class="cls-3" cx="12.9" cy="114.6" r="6.99"/><circle class="cls-3" cx="117.44" cy="68.64" r="7.64"/></g></g></svg>