<svg xmlns="http://www.w3.org/2000/svg" viewBox="0 0 257.12 169.03"><defs><style>.cls-1{fill:#231f20;stroke:#231f20;stroke-width:0.7px;}.cls-1,.cls-2{stroke-linecap:round;stroke-linejoin:round;}.cls-2{fill:none;stroke:#000;stroke-width:3.8px;}</style></defs><g id="Layer_2" data-name="Layer 2"><g id="Layer_1-2" data-name="Layer 1"><path class="cls-1" d="M6.17,2.3H2.32v15H6.17v2H.35V.35H6.17Z"/><path class="cls-1" d="M23.36,12.49v.94a3.69,3.69,0,0,1-3.69,3.72h-5.4V2.45h5a3.68,3.68,0,0,1,3.69,3.72V7a3.76,3.76,0,0,1-1,2.54A3.67,3.67,0,0,1,23.36,12.49ZM16.23,4.4V8.79h3A1.73,1.73,0,0,0,21,7V6.17A1.73,1.73,0,0,0,19.25,4.4Zm5.18,8.09a1.71,1.71,0,0,0-1.74-1.75H16.23v4.45h3.44a1.72,1.72,0,0,0,1.74-1.76Z"/><path class="cls-1" d="M37.29.35v18.9H31.47v-2h3.86V2.3H31.47V.35Z"/><path class="cls-1" d="M116.73,4.4h-7.14V9.06h6.3v2h-6.3v6.13h-2V2.45h9.09Z"/><path class="cls-1" d="M126.91,17.15a3.75,3.75,0,0,1-3.71-3.74V6.17a3.72,3.72,0,0,1,3.71-3.72h1.68a3.68,3.68,0,0,1,3.7,3.72v7.24a3.71,3.71,0,0,1-3.7,3.74Zm1.68-2a1.75,1.75,0,0,0,1.75-1.76V6.17a1.74,1.74,0,0,0-1.75-1.77h-1.68a1.76,1.76,0,0,0-1.76,1.77v7.24a1.77,1.77,0,0,0,1.76,1.76Z"/><path class="cls-1" d="M147.85,2.45v11a3.74,3.74,0,0,1-3.7,3.74h-1.68a3.73,3.73,0,0,1-3.71-3.74v-11h2v11a1.77,1.77,0,0,0,1.76,1.76h1.68a1.75,1.75,0,0,0,1.75-1.76v-11Z"/><path class="cls-1" d="M161.46,2.45h1.95v14.7h-2.92L156.27,5.49V17.15h-2V2.45h2.92l4.22,11.65Z"/><path class="cls-1" d="M179,6.17v7.24a3.74,3.74,0,0,1-3.69,3.74h-5.4V2.45h5.4A3.71,3.71,0,0,1,179,6.17Zm-1.95,0a1.75,1.75,0,0,0-1.74-1.77h-3.45V15.17h3.45A1.75,1.75,0,0,0,177,13.41Z"/><path class="cls-1" d="M191,2.45l3.55,9.87v4.83h-1.95V13.66h-5.19v3.49h-1.95V12.32L189,2.45Zm-1,3.07-2.22,6.19h4.51L190,5.52Z"/><path class="cls-1" d="M210.09,4.4h-3.57V17.15h-2V4.4H201V2.45h9.09Z"/><path class="cls-1" d="M225.65,4.4h-3.57V15.19h3.57v2h-9.09v-2h3.57V4.4h-3.57V2.45h9.09Z"/><path class="cls-1" d="M235.84,17.15a3.76,3.76,0,0,1-3.72-3.74V6.17a3.73,3.73,0,0,1,3.72-3.72h1.68a3.68,3.68,0,0,1,3.69,3.72v7.24a3.7,3.7,0,0,1-3.69,3.74Zm1.68-2a1.75,1.75,0,0,0,1.74-1.76V6.17a1.74,1.74,0,0,0-1.74-1.77h-1.68a1.77,1.77,0,0,0-1.77,1.77v7.24a1.77,1.77,0,0,0,1.77,1.76Z"/><path class="cls-1" d="M254.82,2.45h1.95v14.7h-2.91L249.64,5.49V17.15h-2V2.45h2.92l4.22,11.65Z"/><ellipse class="cls-2" cx="125.22" cy="108.8" rx="120.35" ry="58.32"/><ellipse class="cls-2" cx="125.22" cy="92.44" rx="93.87" ry="41.97"/><ellipse class="cls-2" cx="125.22" cy="99.97" rx="107.64" ry="49.49"/><ellipse class="cls-2" cx="125.22" cy="76.74" rx="61.01" ry="26.26"/><ellipse class="cls-2" cx="125.22" cy="69.76" rx="44.8" ry="19.28"/><ellipse class="cls-2" cx="125.22" cy="63.61" rx="30.5" ry="13.13"/><ellipse class="cls-2" cx="125.22" cy="84.44" rx="78.89" ry="33.96"/></g></g></svg>