<svg xmlns="http://www.w3.org/2000/svg" viewBox="0 0 261.32 203.45"><defs><style>.cls-1{fill:#231f20;stroke:#231f20;stroke-width:0.7px;}.cls-1,.cls-2{stroke-linecap:round;stroke-linejoin:round;}.cls-2{fill:none;stroke:#000;stroke-width:3.4px;}</style></defs><g id="Layer_2" data-name="Layer 2"><g id="Layer_1-2" data-name="Layer 1"><path class="cls-1" d="M16.41,2.3H12.57v15h3.84v2H10.6V.35h5.81Z"/><path class="cls-1" d="M33.61,4.4H26.47V9.06h6.3v2h-6.3v6.13H24.52V2.45h9.09Z"/><path class="cls-1" d="M47.54.35v18.9H41.72v-2h3.86V2.3H41.72V.35Z"/><path class="cls-1" d="M171.64,2.45h2v14.7h-1.95V6.67l-2.06,4.47h-1.07l-2.06-4.47V17.15h-2V2.45h2l2.54,5.61Z"/><path class="cls-1" d="M183.84,17.15a3.75,3.75,0,0,1-3.71-3.74V6.17a3.72,3.72,0,0,1,3.71-3.72h1.68a3.68,3.68,0,0,1,3.7,3.72v7.24a3.71,3.71,0,0,1-3.7,3.74Zm1.68-2a1.75,1.75,0,0,0,1.75-1.76V6.17a1.74,1.74,0,0,0-1.75-1.77h-1.68a1.76,1.76,0,0,0-1.76,1.77v7.24a1.77,1.77,0,0,0,1.76,1.76Z"/><path class="cls-1" d="M204.78,4.4h-3.57V17.15h-2V4.4h-3.57V2.45h9.09Z"/><path class="cls-1" d="M218.39,2.45h2v14.7h-2V10.36H213.2v6.79h-1.95V2.45h1.95v6h5.19Z"/><path class="cls-1" d="M235.9,4.4h-7.14v4h6.3v2h-6.3v4.78h7.14v2h-9.09V2.45h9.09Z"/><path class="cls-1" d="M251.46,7.43A3.67,3.67,0,0,1,248.67,11l2.79,6.13h-2.14l-2.73-6h-2.27v6h-1.95V2.45h5.4a3.68,3.68,0,0,1,3.69,3.72Zm-2-1.26a1.74,1.74,0,0,0-1.74-1.77h-3.45V9.17h3.45a1.73,1.73,0,0,0,1.74-1.74Z"/><ellipse class="cls-2" cx="130.66" cy="125.68" rx="128.96" ry="40.56"/><ellipse class="cls-2" cx="130.66" cy="126.1" rx="128.96" ry="20.13"/><ellipse class="cls-2" cx="130.66" cy="125.65" rx="128.96" ry="59.37"/><ellipse class="cls-2" cx="130.66" cy="125.65" rx="75.33" ry="76.1"/><ellipse class="cls-2" cx="130.66" cy="125.65" rx="103.87" ry="76.1"/><ellipse class="cls-2" cx="130.99" cy="125.65" rx="34.57" ry="76.1"/><ellipse class="cls-2" cx="130.66" cy="125.65" rx="128.96" ry="76.1"/><line class="cls-2" x1="1.7" y1="125.65" x2="259.62" y2="125.65"/><line class="cls-2" x1="130.66" y1="49.54" x2="130.66" y2="201.75"/></g></g></svg>