<svg xmlns="http://www.w3.org/2000/svg" viewBox="0 0 226 232.93"><defs><style>.cls-1{fill:#231f20;stroke:#231f20;stroke-width:0.7px;}.cls-1,.cls-2,.cls-3{stroke-linecap:round;stroke-linejoin:round;}.cls-2,.cls-3{stroke:#000;}.cls-2{stroke-width:2px;}.cls-3{fill:none;stroke-width:4px;}</style></defs><g id="Layer_2" data-name="Layer 2"><g id="Layer_1-2" data-name="Layer 1"><path class="cls-1" d="M6.17,2.3H2.32v15H6.17v2H.35V.35H6.17Z"/><path class="cls-1" d="M23.36,4.4H16.23v4h6.29v2H16.23v4.78h7.13v2H14.27V2.45h9.09Z"/><path class="cls-1" d="M37.29.35v18.9H31.47v-2h3.86V2.3H31.47V.35Z"/><path class="cls-1" d="M83.65,2.45h2v14.7H82.69L78.47,5.49V17.15h-2V2.45h2.91L83.65,14.1Z"/><path class="cls-1" d="M95.79,17.15a3.75,3.75,0,0,1-3.71-3.74V6.17a3.72,3.72,0,0,1,3.71-3.72h1.68a3.68,3.68,0,0,1,3.7,3.72v7.24a3.71,3.71,0,0,1-3.7,3.74Zm1.68-2a1.75,1.75,0,0,0,1.74-1.76V6.17A1.73,1.73,0,0,0,97.47,4.4H95.79A1.76,1.76,0,0,0,94,6.17v7.24a1.77,1.77,0,0,0,1.76,1.76Z"/><path class="cls-1" d="M116.73,7.43a3.68,3.68,0,0,1-2.8,3.59l2.8,6.13h-2.14l-2.73-6h-2.27v6h-2V2.45H113a3.68,3.68,0,0,1,3.7,3.72Zm-2-1.26A1.73,1.73,0,0,0,113,4.4h-3.44V9.17H113a1.72,1.72,0,0,0,1.74-1.74Z"/><path class="cls-1" d="M132.29,4.4h-3.57V17.15h-2V4.4H123.2V2.45h9.09Z"/><path class="cls-1" d="M145.9,2.45h1.95v14.7H145.9V10.37h-5.19v6.78h-2V2.45h2v6h5.19Z"/><path class="cls-1" d="M169.88,12.44h2v.87a1.88,1.88,0,0,0,1.89,1.88h1.41A1.73,1.73,0,0,0,177,13.51c0-3-6.93-3.71-6.93-7.64,0-2,1.59-3.42,3.84-3.42h1a3.84,3.84,0,0,1,3.84,3.84v.63h-1.95V6.29a1.88,1.88,0,0,0-1.89-1.89h-1c-1.2,0-1.89.57-1.89,1.47,0,2.29,6.93,3.26,6.93,7.64a3.68,3.68,0,0,1-3.84,3.64h-1.41a3.84,3.84,0,0,1-3.84-3.84Z"/><path class="cls-1" d="M194.53,4.4H191V17.15h-2V4.4h-3.57V2.45h9.09Z"/><path class="cls-1" d="M206.54,2.45l3.55,9.87v4.83h-2V13.66H203v3.49H201V12.32l3.55-9.87Zm-1,3.07-2.23,6.19h4.51l-2.22-6.19Z"/><path class="cls-1" d="M225.65,7.43A3.67,3.67,0,0,1,222.86,11l2.79,6.13h-2.14l-2.73-6h-2.27v6h-1.95V2.45H222a3.68,3.68,0,0,1,3.69,3.72Zm-2-1.26A1.74,1.74,0,0,0,222,4.4h-3.45V9.17H222a1.73,1.73,0,0,0,1.74-1.74Z"/><path class="cls-2" d="M56,87.4c-.21-1.42-.41-2.84-.65-4.26-.2-1.18-.41-2.36-.69-3.54s-.6-2.46-1-3.69a14.68,14.68,0,0,0-3.24-5.83c-2-2.13-5.15-3.51-9.18-4.35a82.17,82.17,0,0,0-9.33-1.32C30,64.23,28,64,26.06,63.84a8.35,8.35,0,0,1-.89-.25c1.48-.18,2.63-.35,3.81-.44a92.71,92.71,0,0,0,13.25-1.86c4.37-1,7.42-2.74,9.08-5.15A17.64,17.64,0,0,0,54,49.94c.4-1.8.89-3.61,1.26-5.42.21-1,.26-2,.42-3a3.36,3.36,0,0,1,.65-1.6A26.36,26.36,0,0,1,57,43.17a28.21,28.21,0,0,0,1,5.16c.38,1.36.62,2.72,1.11,4.06a12.09,12.09,0,0,0,4.21,6,18,18,0,0,0,6.71,2.86,60.38,60.38,0,0,0,8.42,1.37c2.83.25,5.63.61,8.58.93a6.78,6.78,0,0,1-2.73.47c-4.19.34-8.34.81-12.36,1.54-5.49,1-9.22,3-11.15,5.93a18.42,18.42,0,0,0-2.35,5.31c-.51,1.89-.9,3.8-1.33,5.7,0,.18,0,.36,0,.55-.21,1.45-.43,2.9-.65,4.35Z"/><path class="cls-2" d="M186.77,158.56c-.22-1.42-.42-2.84-.66-4.26-.2-1.18-.41-2.36-.68-3.53s-.61-2.47-1-3.7a14.65,14.65,0,0,0-3.23-5.83c-2-2.13-5.15-3.51-9.19-4.35a82,82,0,0,0-9.32-1.32q-2.92-.27-5.83-.57a7.19,7.19,0,0,1-.89-.25c1.47-.18,2.63-.35,3.8-.44A92.31,92.31,0,0,0,173,132.45c4.38-1,7.42-2.74,9.08-5.15a17.31,17.31,0,0,0,2.71-6.19c.4-1.81.89-3.62,1.27-5.43.21-1,.25-2,.41-3a3.38,3.38,0,0,1,.66-1.6,28.31,28.31,0,0,1,.65,3.25,28.48,28.48,0,0,0,1,5.17c.38,1.35.62,2.71,1.11,4a12.12,12.12,0,0,0,4.22,6,18.08,18.08,0,0,0,6.7,2.87,61.91,61.91,0,0,0,8.42,1.36c2.84.25,5.64.61,8.58.93a6.57,6.57,0,0,1-2.72.47c-4.2.34-8.34.81-12.36,1.54-5.5,1-9.23,3-11.16,5.93a18.39,18.39,0,0,0-2.34,5.31c-.52,1.9-.9,3.8-1.34,5.7,0,.18,0,.36,0,.55l-.66,4.35Z"/><path class="cls-2" d="M104.9,231.93c-.21-1.42-.41-2.84-.65-4.26-.2-1.18-.41-2.36-.69-3.54s-.6-2.47-1-3.69a14.65,14.65,0,0,0-3.23-5.83c-2-2.13-5.15-3.51-9.19-4.35a82,82,0,0,0-9.32-1.32c-2-.18-3.89-.38-5.84-.57a7.77,7.77,0,0,1-.88-.25c1.47-.18,2.62-.35,3.8-.45a90.93,90.93,0,0,0,13.25-1.85c4.38-1,7.42-2.74,9.08-5.16a17.59,17.59,0,0,0,2.71-6.19c.4-1.81.89-3.61,1.27-5.42.21-1,.25-2,.41-3a3.39,3.39,0,0,1,.66-1.59,28.31,28.31,0,0,1,.65,3.25,28.21,28.21,0,0,0,1,5.16c.38,1.35.62,2.72,1.11,4.06a12.05,12.05,0,0,0,4.22,6,18.07,18.07,0,0,0,6.7,2.86,60.38,60.38,0,0,0,8.42,1.37c2.83.25,5.63.6,8.58.93a6.58,6.58,0,0,1-2.73.46c-4.19.35-8.33.81-12.35,1.55-5.5,1-9.23,3-11.16,5.93a18.39,18.39,0,0,0-2.34,5.31c-.52,1.89-.91,3.8-1.34,5.69a5.28,5.28,0,0,0,0,.55l-.66,4.35Z"/><line class="cls-3" x1="60.63" y1="68.03" x2="181.98" y2="130.84"/><line class="cls-3" x1="104.63" y1="208.57" x2="190.46" y2="131.02"/></g></g></svg>