<svg xmlns="http://www.w3.org/2000/svg" viewBox="0 0 241.56 240.81"><defs><style>.cls-1{fill:#231f20;stroke:#231f20;stroke-linecap:round;stroke-linejoin:round;stroke-width:0.7px;}.cls-2{stroke:#000;stroke-miterlimit:10;stroke-width:4px;}</style></defs><g id="Layer_2" data-name="Layer 2"><g id="Layer_1-2" data-name="Layer 1"><path class="cls-1" d="M6.17,2.3H2.32v15H6.17v2H.35V.35H6.17Z"/><path class="cls-1" d="M23.36,6.17v7.24a3.73,3.73,0,0,1-3.69,3.74h-5.4V2.45h5.4A3.7,3.7,0,0,1,23.36,6.17Zm-1.95,0A1.74,1.74,0,0,0,19.67,4.4H16.22V15.17h3.45a1.75,1.75,0,0,0,1.74-1.76Z"/><path class="cls-1" d="M37.29.35v18.9H31.47v-2h3.86V2.3H31.47V.35Z"/><path class="cls-1" d="M78.47,15.19h7.14v2H76.52V2.45h2Z"/><path class="cls-1" d="M101.17,2.45v11a3.74,3.74,0,0,1-3.7,3.74H95.79a3.72,3.72,0,0,1-3.71-3.74v-11h2v11a1.77,1.77,0,0,0,1.76,1.76h1.68a1.75,1.75,0,0,0,1.74-1.76v-11Z"/><path class="cls-1" d="M114.77,2.45h2v14.7h-2.92L109.59,5.49V17.15h-2V2.45h2.92l4.21,11.65Z"/><path class="cls-1" d="M128.74,2.45l3.55,9.87v4.83h-1.95V13.66h-5.19v3.49h-2V12.32l3.55-9.87Zm-1,3.06-2.22,6.2H130l-2.23-6.2Z"/><path class="cls-1" d="M147.85,7.43A3.68,3.68,0,0,1,145.06,11l2.79,6.13h-2.14l-2.73-6h-2.27v6h-2V2.45h5.39a3.68,3.68,0,0,1,3.7,3.72ZM145.9,6.17a1.74,1.74,0,0,0-1.75-1.77h-3.44V9.17h3.44a1.73,1.73,0,0,0,1.75-1.74Z"/><path class="cls-1" d="M179,6.17V7.43a3.68,3.68,0,0,1-3.7,3.69h-3.44v6h-2V2.45h5.39A3.68,3.68,0,0,1,179,6.17Zm-1.95,0a1.74,1.74,0,0,0-1.75-1.77h-3.44V9.17h3.44A1.73,1.73,0,0,0,177,7.43Z"/><path class="cls-1" d="M192.58,2.45h1.95v14.7h-1.95V10.36h-5.19v6.79h-1.95V2.45h1.95v6h5.19Z"/><path class="cls-1" d="M206.54,2.45l3.55,9.87v4.83h-2V13.66H203v3.49H201V12.32l3.55-9.87Zm-1,3.06-2.22,6.2h4.51l-2.22-6.2Z"/><path class="cls-1" d="M216.56,12.44h1.95v.86a1.88,1.88,0,0,0,1.89,1.89h1.41a1.73,1.73,0,0,0,1.89-1.68c0-3-6.93-3.71-6.93-7.64,0-2,1.6-3.42,3.84-3.42h1a3.84,3.84,0,0,1,3.84,3.84v.63h-1.95V6.29A1.88,1.88,0,0,0,221.6,4.4h-1c-1.19,0-1.89.57-1.89,1.47,0,2.29,6.93,3.26,6.93,7.64a3.68,3.68,0,0,1-3.84,3.64H220.4a3.85,3.85,0,0,1-3.84-3.85Z"/><path class="cls-1" d="M241.21,4.4h-7.14v4h6.3v2h-6.3v4.78h7.14v2h-9.09V2.45h9.09Z"/><circle class="cls-2" cx="121.75" cy="59.01" r="16.6"/><circle class="cls-2" cx="121.75" cy="222.21" r="16.6"/><circle class="cls-2" cx="203.87" cy="140.76" r="16.6"/><circle class="cls-2" cx="40.66" cy="140.76" r="16.6"/><circle class="cls-2" cx="179.45" cy="197" r="16.6"/><circle class="cls-2" cx="64.04" cy="84.51" r="16.6"/><circle class="cls-2" cx="179.45" cy="84.51" r="16.6"/><circle class="cls-2" cx="64.04" cy="197" r="16.6"/></g></g></svg>