<svg xmlns="http://www.w3.org/2000/svg" viewBox="0 0 112.2 59.76"><defs><style>.cls-1{stroke:#231f20;stroke-miterlimit:10;stroke-width:0.3px;}</style></defs><g id="Layer_2" data-name="Layer 2"><g id="Layer_1-2" data-name="Layer 1"><path class="cls-1" d="M112.05,58.51a2.4,2.4,0,0,1-2.31,1.1q-53.65,0-107.31,0a3.82,3.82,0,0,1-1.18-.12A1.51,1.51,0,0,1,.16,57.78a1.53,1.53,0,0,1,1.38-1.46,1.32,1.32,0,0,1,.44,0c2,.41,3.05-.65,4.17-2.11,6.69-8.73,13.48-17.37,20.2-26.07C28,26,29.88,25.05,32.53,25.73c.27.08.78-.23,1-.5,3-3.68,6-7.39,9-11.09,3.21-4,6.41-7.92,9.64-11.87a5.11,5.11,0,0,1,7.93-.44q6.52,6.45,13,13c.62.62,1.1.81,1.86.3a15.82,15.82,0,0,1,1.74-.89,5.14,5.14,0,0,1,7.15,2.08Q89.19,25.13,94.48,34q6.4,10.67,12.78,21.35a1.62,1.62,0,0,0,1.73,1,3.16,3.16,0,0,1,3.06.9ZM67.26,33.44c.58-2,1.09-3.78,1.64-5.57.36-1.15,1.19-1.65,2.13-1.34a1.68,1.68,0,0,1,1,2.29c-.59,2.09-1.17,4.19-1.83,6.27a1.06,1.06,0,0,0,.39,1.3Q81.69,46,92.72,55.6a2.68,2.68,0,0,0,2,.7c2.77,0,5.54,0,8.3,0,.27,0,.54-.05.9-.08-.2-.37-.32-.62-.47-.87L93.48,38.77Q87.3,28.48,81.12,18.19c-.83-1.39-1.62-1.54-3.1-.93-2,.83-3.68,1.85-3.82,4.29a.58.58,0,0,1-.07.21,1.62,1.62,0,0,1-1.92,1.07A1.58,1.58,0,0,1,71,20.94a7.89,7.89,0,0,1,.48-1.79A1.44,1.44,0,0,0,71,17.34c-4.25-4.2-8.46-8.43-12.68-12.66-1.65-1.65-2.51-1.6-4,.21Q45.77,15.43,37.2,26c-.34.41-.65.83-1,1.3,1.71.74,3.28,1.39,4.83,2.11a1.17,1.17,0,0,0,1.45-.21c2-1.7,4-3.37,6-5.05,3-2.52,5.26-2.47,8.2.11C60.16,27.28,63.63,30.28,67.26,33.44ZM88.41,56.29c-.39-.38-.52-.51-.65-.62Q70.9,41,54,26.36a2,2,0,0,0-3,0C49,28,47,29.78,44.9,31.43a1.12,1.12,0,0,0-.36,1.63q5.24,11.09,10.38,22.22a1.52,1.52,0,0,0,1.64,1q15.24,0,30.48,0Zm-66.25-.07H51.64c-.12-.31-.19-.55-.29-.77Q46.27,44.53,41.16,33.63a2.31,2.31,0,0,0-1-1c-2.68-1.19-5.4-2.34-8.11-3.48-1.34-.57-1.91-.4-2.82.76Q19.33,42.59,9.48,55.25c-.22.27-.4.56-.69,1,.47,0,.79.06,1.1.06,2.48,0,4.95,0,7.43,0a1.47,1.47,0,0,0,1.51-.92c2.43-4.43,4.9-8.84,7.35-13.25.85-1.53,1.69-2,2.7-1.4s1,1.5.17,3c-1.32,2.39-2.65,4.77-4,7.15C24.13,52.65,23.19,54.37,22.16,56.22Z"/></g></g></svg>