<?xml version="1.0" encoding="UTF-8"?><svg xmlns="http://www.w3.org/2000/svg" viewBox="0 0 306.54 66.34"><defs><style>.d{fill:#211e1f;stroke:#000;stroke-linecap:round;stroke-linejoin:round;}</style></defs><g id="a"/><g id="b"><g id="c"><g><path class="d" d="M.5,.5H9.05l29.34,44.73c2.16,3.33,4.68,8.28,4.68,8.28h.18V.5h7.56V64.85h-8.28L13.01,20.03c-2.07-3.15-4.77-8.01-4.77-8.01h-.18v52.83H.5V.5Z"/><path class="d" d="M76.1,.5h9.09l23.76,64.35h-8.82l-6.84-19.62h-25.65l-6.93,19.62h-8.28L76.1,.5Zm-6.12,38.16h21.06l-7.38-21.6c-1.26-3.6-2.88-9.09-2.88-9.09h-.18s-1.71,5.4-2.97,9.09l-7.65,21.6Z"/><path class="d" d="M98.42,.5h50.94V7.61h-21.42v57.24h-8.1V7.61h-21.42V.5Z"/><path class="d" d="M150.98,44.06V.5h8.1V43.25c0,10.98,6.21,15.66,16.83,15.66s16.29-4.68,16.29-15.66V.5h8.1V44.06c0,15.57-10.89,21.78-24.66,21.78s-24.66-6.21-24.66-21.78Z"/><path class="d" d="M205.97,.5h30.06c11.34,0,18.99,7.11,18.99,17.64,0,7.83-3.42,13.41-11.16,15.93v.27c6.57,2.34,8.64,6.84,9.27,16.38,.72,10.35,1.8,12.96,2.97,13.77v.36h-8.73c-1.35-1.17-1.62-3.6-2.34-14.4-.63-9.45-4.41-12.78-13.05-12.78h-17.91v27.18h-8.1V.5Zm8.1,30.6h19.08c9,0,13.5-4.5,13.5-11.79,0-7.83-3.6-11.79-13.05-11.79h-19.53V31.1Z"/><path class="d" d="M259.52,.5h45.45V7.61h-37.35V27.95h33.93v6.84h-33.93v22.59h38.43v7.47h-46.53V.5Z"/></g></g></g></svg>