<svg xmlns="http://www.w3.org/2000/svg" viewBox="0 0 59.16 65.86"><g id="Layer_2" data-name="Layer 2"><g id="Layer_1-2" data-name="Layer 1"><path d="M30.1,0a2.26,2.26,0,0,1,1.17,2.28c-.05,3.09,0,6.17,0,9.41l.53-.44,6.58-5.77a1.64,1.64,0,1,1,2.21,2.41l-5.91,5.16c-1,.9-2.08,1.79-3.09,2.71a1.13,1.13,0,0,0-.31.7c0,1.52,0,3.05,0,4.57a1,1,0,0,0,.39.69c2.18,1.31,4.39,2.58,6.58,3.88a.68.68,0,0,0,.81,0c1.31-.77,2.64-1.5,3.94-2.29a1.24,1.24,0,0,0,.5-.72q1.17-5.78,2.3-11.57A1.73,1.73,0,0,1,47,9.53a1.42,1.42,0,0,1,1.61.52A2.26,2.26,0,0,1,49,11.46c-.5,2.86-1.08,5.71-1.63,8.57-.05.24-.08.49-.13.82.25-.13.44-.22.62-.33,2.54-1.46,5.07-2.94,7.62-4.39a2.71,2.71,0,0,1,1.13-.38,1.57,1.57,0,0,1,1.59,1.16,1.7,1.7,0,0,1-.84,1.91c-2.59,1.51-5.18,3-7.78,4.5l-.67.42,5.77,2,3.16,1.06a1.66,1.66,0,0,1,1.23,2.07,1.63,1.63,0,0,1-2.28,1Q51.25,28,45.71,26a1.13,1.13,0,0,0-1.07.11c-1.25.74-2.52,1.46-3.79,2.17a.77.77,0,0,0-.48.79c0,2.57,0,5.14,0,7.71a.74.74,0,0,0,.43.76c1.3.72,2.58,1.45,3.85,2.21a1.15,1.15,0,0,0,1.08.09c3.67-1.28,7.35-2.54,11-3.81a1.64,1.64,0,0,1,2.09.58,1.5,1.5,0,0,1-.42,2.18,4.57,4.57,0,0,1-.87.4l-8,2.71c-.2.06-.38.15-.66.26l.66.41q3.81,2.2,7.62,4.39a1.87,1.87,0,0,1,1,1.33,1.5,1.5,0,0,1-.57,1.49,1.62,1.62,0,0,1-1.81.18c-.71-.37-1.38-.78-2.07-1.18l-5.95-3.43c-.16-.1-.33-.19-.61-.34.23,1.24.45,2.38.67,3.51.38,2,.77,4,1.14,5.92a1.64,1.64,0,0,1-1.27,1.94A1.53,1.53,0,0,1,46,55.35c-.33-1.19-.54-2.41-.79-3.62-.56-2.83-1.11-5.67-1.68-8.5a1,1,0,0,0-.39-.58c-1.36-.81-2.74-1.6-4.12-2.36a.77.77,0,0,0-.68,0c-2.23,1.28-4.44,2.58-6.65,3.9a.85.85,0,0,0-.37.63c0,1.54,0,3.08,0,4.63a1.37,1.37,0,0,0,.46.82c2.94,2.57,5.89,5.12,8.83,7.68a2.48,2.48,0,0,1,.67.91,1.63,1.63,0,0,1-.5,1.8,1.61,1.61,0,0,1-1.87,0c-.92-.7-1.78-1.48-2.65-2.23l-4.45-3.91-.38-.29v9.79a1.67,1.67,0,0,1-1,1.62,1.51,1.51,0,0,1-1.68-.25A1.78,1.78,0,0,1,28,64c0-3,0-6,0-9v-.79a3.16,3.16,0,0,0-.36.26c-2.19,1.92-4.38,3.85-6.58,5.76a3,3,0,0,1-.89.6A1.62,1.62,0,0,1,18.65,58c2-1.74,4-3.47,6-5.2,1-.9,2.08-1.79,3.1-2.71a1.23,1.23,0,0,0,.33-.75c0-1.5,0-3,0-4.51a.75.75,0,0,0-.43-.76Q24.31,42.2,21,40.25a.75.75,0,0,0-.87,0c-1.29.76-2.61,1.49-3.89,2.26a1.27,1.27,0,0,0-.53.72C15,47,14.23,50.79,13.49,54.56l0,.19c-.26,1.17-1,1.78-2,1.59s-1.5-1.05-1.26-2.27q.86-4.37,1.7-8.75A1.76,1.76,0,0,0,12,45c-.25.14-.45.25-.64.37-2.52,1.45-5,2.92-7.57,4.36a2.91,2.91,0,0,1-1.13.38A1.57,1.57,0,0,1,1,49a1.7,1.7,0,0,1,.72-1.91c.84-.52,1.7-1,2.55-1.49L9.7,42.48c.19-.1.36-.22.61-.37L3.77,39.87l-2.43-.82A1.66,1.66,0,0,1,.16,37a1.65,1.65,0,0,1,2.25-1c3.7,1.26,7.4,2.52,11.09,3.81a1.22,1.22,0,0,0,1.13-.11c1.23-.73,2.47-1.44,3.73-2.14a.75.75,0,0,0,.44-.75q0-3.9,0-7.78a.74.74,0,0,0-.45-.75c-1.26-.7-2.5-1.41-3.73-2.15A1.34,1.34,0,0,0,13.36,26c-3.65,1.28-7.31,2.52-11,3.8a1.71,1.71,0,0,1-1.9-.35A1.49,1.49,0,0,1,.81,27a11.31,11.31,0,0,1,1.91-.75l7.52-2.57-.65-.41C7.06,21.8,4.52,20.33,2,18.88a1.88,1.88,0,0,1-1-1.31,1.48,1.48,0,0,1,.52-1.5,1.65,1.65,0,0,1,1.69-.28,6,6,0,0,1,.62.32l7.45,4.31c.2.12.41.22.72.39-.32-1.69-.63-3.27-.94-4.86s-.59-3.06-.88-4.59a1.63,1.63,0,0,1,1.23-1.9,1.47,1.47,0,0,1,1.84,1c.35,1.21.57,2.45.81,3.69.57,2.83,1.11,5.66,1.69,8.49a1,1,0,0,0,.4.58c1.36.81,2.74,1.59,4.12,2.36a.77.77,0,0,0,.63,0q3.39-2,6.75-4a.74.74,0,0,0,.31-.54c0-1.57,0-3.13,0-4.7a1.25,1.25,0,0,0-.43-.77C24.57,13,21.66,10.51,18.75,8a1.74,1.74,0,0,1-.65-2.09,1.5,1.5,0,0,1,2.12-.81A7,7,0,0,1,21.5,6c2,1.73,4,3.48,6,5.22l.35.28c0-.29,0-.49,0-.69,0-2.83,0-5.66,0-8.49A2.28,2.28,0,0,1,29.07,0Zm6.82,32.93c0-1.29,0-2.57,0-3.85a.68.68,0,0,0-.38-.72c-2.23-1.28-4.43-2.59-6.65-3.87a.87.87,0,0,0-.74,0c-2.22,1.28-4.43,2.59-6.65,3.87a.71.71,0,0,0-.39.72c0,2.54,0,5.09,0,7.64a1,1,0,0,0,.39.69q3.3,2,6.65,3.86a1,1,0,0,0,.79,0c2.2-1.25,4.37-2.53,6.56-3.79a.68.68,0,0,0,.39-.71C36.91,35.5,36.92,34.21,36.92,32.93Z"/></g></g></svg>