<svg xmlns="http://www.w3.org/2000/svg" viewBox="0 0 194.68 194.01">
<defs>
    <style>.cls-1,.cls-2{stroke:#000;stroke-linecap:round;stroke-linejoin:round;}.cls-1{stroke-width:2px;}.cls-2{fill:none;stroke-width:4px;}</style>
    </defs>
    <g id="Layer_2" data-name="Layer 2">
        <g id="Layer_1-2" data-name="Layer 1">
            <path class="cls-1" d="M31.8,48.48c-.22-1.42-.42-2.84-.66-4.26-.2-1.18-.41-2.36-.68-3.54s-.61-2.47-1-3.69a14.65,14.65,0,0,0-3.23-5.83c-2-2.13-5.15-3.51-9.19-4.36a84.31,84.31,0,0,0-9.32-1.31c-1.95-.18-3.89-.38-5.83-.57A7,7,0,0,1,1,24.66c1.47-.17,2.63-.34,3.81-.44a92.38,92.38,0,0,0,13.24-1.85c4.38-1,7.42-2.74,9.08-5.16A17.44,17.44,0,0,0,29.85,11c.39-1.81.88-3.61,1.26-5.42.21-1,.25-2,.41-3A3.5,3.5,0,0,1,32.18,1a26.36,26.36,0,0,1,.66,3.25,27.37,27.37,0,0,0,1,5.16c.38,1.35.63,2.72,1.11,4.06a12.12,12.12,0,0,0,4.22,6,18.07,18.07,0,0,0,6.7,2.86,58.86,58.86,0,0,0,8.43,1.36c2.83.26,5.63.61,8.57.94a6.72,6.72,0,0,1-2.72.46c-4.2.35-8.34.81-12.36,1.54-5.5,1-9.23,3-11.16,5.94a18.39,18.39,0,0,0-2.34,5.31c-.51,1.89-.9,3.79-1.34,5.69,0,.19,0,.37,0,.55-.22,1.45-.44,2.9-.65,4.35Z"/>
            <path class="cls-1" d="M162.59,119.64c-.21-1.42-.41-2.84-.65-4.26-.2-1.18-.42-2.36-.69-3.54s-.6-2.47-1-3.69a14.68,14.68,0,0,0-3.24-5.83c-2-2.13-5.15-3.51-9.19-4.35a81.67,81.67,0,0,0-9.32-1.32l-5.83-.57a8.35,8.35,0,0,1-.89-.25c1.48-.18,2.63-.35,3.81-.45a91.32,91.32,0,0,0,13.25-1.85c4.37-1,7.41-2.74,9.07-5.16a17.44,17.44,0,0,0,2.72-6.19c.4-1.81.89-3.61,1.26-5.42.21-1,.26-2,.41-3a3.5,3.5,0,0,1,.66-1.59,26.36,26.36,0,0,1,.66,3.25,28.21,28.21,0,0,0,1,5.16c.38,1.35.62,2.72,1.11,4.06a12,12,0,0,0,4.21,6,18.12,18.12,0,0,0,6.71,2.86,58.72,58.72,0,0,0,8.42,1.36c2.83.26,5.63.61,8.58.94a6.6,6.6,0,0,1-2.73.46c-4.2.35-8.34.81-12.36,1.54-5.49,1-9.22,3-11.15,5.94a18.42,18.42,0,0,0-2.35,5.31c-.51,1.89-.9,3.8-1.33,5.69,0,.19,0,.37,0,.55-.21,1.45-.43,2.9-.65,4.35Z"/>
            <path class="cls-1" d="M80.73,193c-.22-1.42-.42-2.84-.66-4.26-.19-1.18-.41-2.36-.68-3.54s-.61-2.47-1-3.69a14.55,14.55,0,0,0-3.24-5.83c-2-2.13-5.15-3.51-9.19-4.36A86.39,86.39,0,0,0,56.65,170c-1.95-.17-3.89-.37-5.83-.57a6.4,6.4,0,0,1-.89-.25c1.47-.17,2.63-.34,3.81-.44A92.38,92.38,0,0,0,67,166.9c4.38-1,7.42-2.74,9.08-5.16a17.44,17.44,0,0,0,2.72-6.19c.4-1.81.88-3.61,1.26-5.42.21-1,.25-2,.41-3a3.5,3.5,0,0,1,.66-1.59,26.59,26.59,0,0,1,.66,3.24,26.57,26.57,0,0,0,1,5.17c.38,1.35.62,2.72,1.11,4.05a12,12,0,0,0,4.21,6,18,18,0,0,0,6.7,2.87,59.09,59.09,0,0,0,8.43,1.36c2.83.26,5.63.61,8.57.94a6.69,6.69,0,0,1-2.72.46c-4.2.35-8.34.81-12.36,1.54-5.49,1-9.23,3-11.16,5.94a18.54,18.54,0,0,0-2.34,5.31c-.51,1.89-.9,3.79-1.34,5.69,0,.18,0,.37,0,.55-.21,1.45-.43,2.9-.65,4.35Z"/>
            <line class="cls-2" x1="36.46" y1="29.11" x2="157.81" y2="91.92"/><line class="cls-2" x1="80.46" y1="169.64" x2="166.29" y2="92.1"/>
        </g>
    </g>
</svg>