<svg xmlns="http://www.w3.org/2000/svg" viewBox="0 0 406.84 340.58"><defs><style>.cls-1,.cls-2{fill:#231f20;stroke-linejoin:round;}.cls-1{stroke:#000;stroke-width:1.9px;}.cls-2{stroke:#231f20;stroke-width:3px;}</style></defs><g id="Layer_2" data-name="Layer 2"><g id="Layer_1-2" data-name="Layer 1"><path class="cls-1" d="M313.63,31c0,16.15-14.38,29.32-32.22,29.32S249.19,47.14,249.19,31c0-16.4,14.38-29.4,32.69-29.4C299.25,1.59,313.63,14.93,313.63,31Zm-59.77,0c0,13.94,12.42,25.41,27.55,25.41S309,45,309,31s-12.32-25.5-27.17-25.5C266.19,5.49,253.86,16.71,253.86,31Zm29.23-16.57c8.41,0,13,3.23,13,9.26,0,3.74-2.24,6.55-6.44,8.07,4.67,1.53,5.79,3.57,6,10.63.19,3.31.37,4.25.93,5.27h-5.6c-.56-.85-.66-2-.94-6.29-.28-4-.84-5.61-2.52-6.63-1.3-.85-3.55-1.28-6.44-1.28h-7.57v14.2h-5.79V14.42Zm-9.62,15.72h7.94c6,0,8.87-2,8.87-6.2s-2.61-6-8.21-6h-8.6Z"/><path class="cls-2" d="M206.42,339.08c.05-4-.06-7.89-.23-11.71A106.91,106.91,0,0,0,206.42,339.08Z"/><path class="cls-2" d="M1.5,170.21H4.43C2.54,170.19,1.5,170.21,1.5,170.21Z"/><path class="cls-2" d="M206.19,13.21c.17-3.82.28-7.7.23-11.71A106.91,106.91,0,0,0,206.19,13.21Z"/><path class="cls-2" d="M398.67,170.29c2.21,0,4.41-.08,6.67-.08h-11c-170.4-4.76-187.19-119.55-188.11-157-6.47,140.3-156.56,155.44-195.51,157H4.43c1.06,0,2.36,0,4,.08-1.59.05-2.89.07-4,.08h6.25c39,1.56,189,16.71,195.51,157,.92-37.45,17.71-152.24,188.11-157h11C403.08,170.37,400.88,170.33,398.67,170.29Z"/><path class="cls-2" d="M4.43,170.37H1.5S2.54,170.39,4.43,170.37Z"/></g></g></svg>