<svg xmlns="http://www.w3.org/2000/svg" viewBox="0 0 185.93 110.64"><defs><style>.cls-1,.cls-2{stroke:#000;stroke-linecap:round;stroke-linejoin:round;}.cls-1{stroke-width:2px;}.cls-2{fill:none;stroke-width:4px;}</style></defs><g id="Layer_2" data-name="Layer 2"><g id="Layer_1-2" data-name="Layer 1"><path class="cls-1" d="M27.53,39.68c-.19-1.15-.36-2.31-.57-3.47-.17-1-.35-1.92-.59-2.88s-.52-2-.85-3a11.79,11.79,0,0,0-2.79-4.75C21,23.84,18.29,22.71,14.82,22a73.6,73.6,0,0,0-8-1.08l-5-.46A7.06,7.06,0,0,1,1,20.28c1.27-.14,2.26-.28,3.28-.36a83.64,83.64,0,0,0,11.41-1.51c3.77-.83,6.39-2.23,7.82-4.2a13.91,13.91,0,0,0,2.33-5c.35-1.48.77-2.95,1.09-4.42.18-.82.22-1.64.36-2.45A2.69,2.69,0,0,1,27.85,1a20.75,20.75,0,0,1,.57,2.64,21.32,21.32,0,0,0,.88,4.21c.32,1.1.53,2.22.95,3.31a9.85,9.85,0,0,0,3.63,4.89,16,16,0,0,0,5.78,2.34,54.92,54.92,0,0,0,7.25,1.11c2.44.21,4.85.5,7.39.76a6.1,6.1,0,0,1-2.35.38c-3.61.28-7.18.66-10.64,1.25-4.73.82-8,2.43-9.61,4.84a14.62,14.62,0,0,0-2,4.33c-.44,1.54-.78,3.09-1.15,4.64,0,.14,0,.29,0,.44-.18,1.19-.37,2.37-.56,3.55Z"/><path class="cls-1" d="M159.6,73.51c-.18-1.15-.34-2.31-.54-3.47-.16-1-.33-1.92-.55-2.88s-.5-2-.81-3a12,12,0,0,0-2.64-4.75c-1.61-1.73-4.2-2.86-7.48-3.55a68.83,68.83,0,0,0-7.6-1.07l-4.75-.46a6.08,6.08,0,0,1-.72-.21c1.2-.14,2.14-.28,3.1-.36a76.39,76.39,0,0,0,10.79-1.51q5.35-1.25,7.4-4.2A14.23,14.23,0,0,0,158,43c.32-1.47.72-2.94,1-4.41.17-.82.2-1.64.33-2.45a2.75,2.75,0,0,1,.54-1.3,22.43,22.43,0,0,1,.53,2.64,22.72,22.72,0,0,0,.83,4.21c.31,1.1.51,2.22.91,3.31a9.79,9.79,0,0,0,3.43,4.89,14.71,14.71,0,0,0,5.46,2.34,49.5,49.5,0,0,0,6.87,1.11c2.3.21,4.59.49,7,.76a5.5,5.5,0,0,1-2.22.38c-3.42.28-6.8.66-10.07,1.25-4.48.82-7.52,2.43-9.09,4.84a15,15,0,0,0-1.91,4.33c-.42,1.54-.74,3.09-1.09,4.64,0,.14,0,.29,0,.44-.17,1.18-.35,2.37-.53,3.55Z"/><path class="cls-1" d="M70,109.63c-.18-1.15-.34-2.31-.53-3.47-.17-1-.34-1.92-.56-2.88s-.49-2-.81-3a12,12,0,0,0-2.64-4.75C63.82,93.78,61.24,92.66,58,92a68.49,68.49,0,0,0-7.6-1.07l-4.75-.47a4.42,4.42,0,0,1-.72-.2c1.2-.14,2.14-.28,3.1-.36a76.39,76.39,0,0,0,10.79-1.51c3.57-.83,6-2.23,7.4-4.2a14.31,14.31,0,0,0,2.21-5c.32-1.47.72-2.94,1-4.41.17-.82.2-1.64.33-2.45a2.85,2.85,0,0,1,.54-1.3,22.48,22.48,0,0,1,.54,2.64,21.93,21.93,0,0,0,.83,4.21c.3,1.1.5,2.21.9,3.31A9.79,9.79,0,0,0,76,86a14.69,14.69,0,0,0,5.47,2.34,50.89,50.89,0,0,0,6.86,1.11c2.31.21,4.59.49,7,.76a5.5,5.5,0,0,1-2.22.38c-3.42.28-6.8.66-10.07,1.25-4.48.82-7.52,2.43-9.09,4.84A15.08,15.08,0,0,0,72,101c-.42,1.55-.74,3.1-1.09,4.64,0,.15,0,.3,0,.45-.17,1.18-.35,2.37-.53,3.55Z"/><line class="cls-2" x1="31.54" y1="23.9" x2="158.11" y2="52.17"/><line class="cls-2" x1="77.43" y1="87.15" x2="166.95" y2="52.25"/></g></g></svg>