<?xml version="1.0" encoding="UTF-8"?><svg xmlns="http://www.w3.org/2000/svg" viewBox="0 0 396.36 68.14"><defs><style>.d{fill:#211e1f;stroke:#000;stroke-linecap:round;stroke-linejoin:round;}</style></defs><g id="a"/><g id="b"><g id="c"><g><path class="d" d="M.5,1.94H51.44v7.11H30.02v57.24h-8.1V9.05H.5V1.94Z"/><path class="d" d="M54.14,1.94h8.1V29.3h34.38V1.94h8.1V66.29h-8.1v-30.42H62.24v30.42h-8.1V1.94Z"/><path class="d" d="M111.47,1.94h30.06c11.34,0,18.99,7.11,18.99,17.64,0,7.83-3.42,13.41-11.16,15.93v.27c6.57,2.34,8.64,6.84,9.27,16.38,.72,10.35,1.8,12.96,2.97,13.77v.36h-8.73c-1.35-1.17-1.62-3.6-2.34-14.4-.63-9.45-4.41-12.78-13.05-12.78h-17.91v27.18h-8.1V1.94Zm8.1,30.6h19.08c9,0,13.5-4.5,13.5-11.79,0-7.83-3.6-11.79-13.05-11.79h-19.53v23.58Z"/><path class="d" d="M162.59,34.07c0-19.26,12.06-33.57,31.5-33.57s31.5,14.31,31.5,33.57-12.06,33.57-31.5,33.57-31.5-14.31-31.5-33.57Zm54.72,0c0-15.12-8.1-26.55-23.22-26.55s-23.22,11.43-23.22,26.55,8.1,26.46,23.22,26.46,23.22-11.34,23.22-26.46Z"/><path class="d" d="M228.83,45.5V1.94h8.1V44.69c0,10.98,6.21,15.66,16.83,15.66s16.29-4.68,16.29-15.66V1.94h8.1V45.5c0,15.57-10.89,21.78-24.66,21.78s-24.66-6.21-24.66-21.78Z"/><path class="d" d="M331.88,57.83h-.18c-4.68,6.57-11.61,9.81-20.07,9.81-18.09,0-30.24-13.77-30.24-33.3S292.1,.59,312.35,.59c14.94,0,24.12,8.1,26.19,20.7h-8.37c-1.8-8.55-7.83-13.68-18-13.68-15.48,0-22.5,11.61-22.5,26.73s9.18,26.28,22.23,26.28,19.44-9,19.44-19.8v-1.53h-19.35v-7.02h27.45v34.02h-5.22l-2.34-8.46Z"/><path class="d" d="M345.29,1.94h8.1V29.3h34.38V1.94h8.1V66.29h-8.1v-30.42h-34.38v30.42h-8.1V1.94Z"/></g></g></g></svg>