<svg xmlns="http://www.w3.org/2000/svg" viewBox="0 0 84.35 63.64"><g id="Layer_2" data-name="Layer 2"><g id="Layer_1-2" data-name="Layer 1"><path d="M73.57,6.5c0,1.85,0,3.53,0,5.22,0,1.2.05,2.4.07,3.61l1.85,2.52q3.93,5.26,7.86,10.53a8.34,8.34,0,0,1,.72,1.1A2.2,2.2,0,0,1,84,31.74a1.19,1.19,0,0,1-1.82.32,4.75,4.75,0,0,1-.85-.93L74.48,22c-.25-.33-.52-.65-.91-1.14,0,2.46.06,4.68,0,6.89a4.48,4.48,0,0,0,1,3.17c3,4,6,8.06,9,12.1a7.85,7.85,0,0,1,.52.76A2.25,2.25,0,0,1,84,46a1.21,1.21,0,0,1-1.81.38,5.65,5.65,0,0,1-.83-1q-3.44-4.57-6.86-9.17c-.25-.34-.53-.66-.93-1.17V60.61c0,.38,0,.77,0,1.16-.07,1.14-.59,1.84-1.4,1.86s-1.39-.7-1.48-1.78a11.23,11.23,0,0,1,0-1.16V35c-1.23,1.65-2.3,3.1-3.38,4.54l-4.76,6.35c-.41.54-.88.86-1.5.66a1.94,1.94,0,0,1-.89-2.72,5.82,5.82,0,0,1,.58-.88l7.55-10.11c.68-.9,1.33-1.83,2-2.73A1.66,1.66,0,0,0,70.68,29c0-2.57,0-5.13,0-7.69a1.6,1.6,0,0,0-.13-.35L66.4,26.5c-1.3,1.74-2.58,3.5-3.91,5.2-.86,1.1-2.06.82-2.47-.52a2.24,2.24,0,0,1,.43-2.1c.72-1,1.43-2,2.16-2.95,2.49-3.34,5-6.68,7.48-10a2.81,2.81,0,0,0,.6-1.9c0-2.13,0-4.26,0-6.38V6.63c-.36.44-.6.71-.83,1Q66.42,12.22,63,16.8a6.51,6.51,0,0,1-.73.9,1.23,1.23,0,0,1-1.94-.15,2.14,2.14,0,0,1,0-2.48c.4-.57.79-1.16,1.2-1.71,3-4.07,6.11-8.1,9.11-12.2,1-1.39,1.89-1.61,3.07,0C76.93,5.62,80.26,10,83.56,14.4a4.86,4.86,0,0,1,.56.9,2.21,2.21,0,0,1-.25,2.36,1.2,1.2,0,0,1-1.76.12,5,5,0,0,1-.67-.76L74,7C73.9,6.85,73.79,6.74,73.57,6.5Z"/><path d="M40.66,21.13c-.94,1.13-1.84,2.15-2.68,3.25-1.78,2.33-3.53,4.72-5.29,7.09a1.67,1.67,0,0,1-1.46.88c-1-.06-1.64-1.68-1.12-2.66a7.76,7.76,0,0,1,.64-1l7.79-10.43a15.12,15.12,0,0,1,1.23-1.68,3.92,3.92,0,0,0,.91-3.06c-.07-2,0-4.06,0-6.09,0-.19,0-.37-.06-.7-.28.33-.5.56-.69.82q-3.44,4.59-6.86,9.17a8.48,8.48,0,0,1-.63.82c-.92,1.05-2.13.59-2.45-.91a2.13,2.13,0,0,1,.5-1.81c.76-1.06,1.53-2.12,2.31-3.16q3.88-5.22,7.79-10.42A7.21,7.21,0,0,1,41,.62a1.37,1.37,0,0,1,2.31.07c.34.44.65.93,1,1.38l9.19,12.29a5.1,5.1,0,0,1,.57.88,2.24,2.24,0,0,1-.28,2.48,1.19,1.19,0,0,1-1.84-.1c-.22-.25-.43-.54-.63-.82L44.57,7.73c-.25-.33-.52-.65-.9-1.11,0,.5-.08.81-.09,1.12,0,2.12,0,4.25,0,6.38a3,3,0,0,0,.63,2c3.06,4,6.09,8.11,9.13,12.18a7.61,7.61,0,0,1,.74,1.08,2.29,2.29,0,0,1-.19,2.49A1.25,1.25,0,0,1,52,32a6.6,6.6,0,0,1-.58-.69l-6.38-8.55c-.43-.58-.85-1.17-1.41-1.94,0,.63-.07,1-.07,1.36,0,2.08,0,4.16,0,6.24a3.08,3.08,0,0,0,.64,2c3.06,4,6.09,8.1,9.13,12.17a8.4,8.4,0,0,1,.79,1.21A2.35,2.35,0,0,1,54,46.08a1.16,1.16,0,0,1-1.82.22,5.94,5.94,0,0,1-.84-.95l-6.78-9.07c-.25-.34-.52-.66-.9-1.15,0,.58-.06,1-.06,1.38q0,12,0,24.07c0,.44,0,.87,0,1.31-.06,1-.52,1.63-1.24,1.73s-1.22-.32-1.47-1.22a6.22,6.22,0,0,1-.17-1.56c0-3.53,0-7.05,0-10.58v-15c-.72.88-1.38,1.63-2,2.44-2,2.66-4,5.36-6,8a2.94,2.94,0,0,1-1,.82c-.54.27-1,0-1.37-.6a1.87,1.87,0,0,1-.2-1.87,7.76,7.76,0,0,1,.76-1.24Q35.38,36.74,40,30.66a3.34,3.34,0,0,0,.73-2.28C40.63,26,40.66,23.56,40.66,21.13Z"/><path d="M13.76,6.7c0,.43-.07.7-.07,1,0,2.23,0,4.45,0,6.68A2.43,2.43,0,0,0,14.16,16c.28.33.51.71.77,1.06l8.65,11.57a5.52,5.52,0,0,1,.67,1.13,2.27,2.27,0,0,1-.32,2.11,1.22,1.22,0,0,1-1.76.12,6.38,6.38,0,0,1-.74-.88Q18,26.62,14.66,22.07l-.88-1.17c0,.5-.09.8-.09,1.11,0,2.18,0,4.35,0,6.53a3,3,0,0,0,.66,2q4.57,6.06,9.13,12.18A6.75,6.75,0,0,1,24.22,44a2.21,2.21,0,0,1-.31,2.22,1.18,1.18,0,0,1-1.75.06,6.38,6.38,0,0,1-.74-.88Q18.11,41,14.8,36.52a4.38,4.38,0,0,0-1.1-1.19c0,.51,0,1,0,1.52q0,11.82,0,23.65a8.73,8.73,0,0,1-.18,1.85c-.2.94-.82,1.4-1.54,1.27s-1.09-.74-1.16-1.68c0-.48,0-1,0-1.45V35.18a2.24,2.24,0,0,0-.41.29L3.22,45.09a8.21,8.21,0,0,1-.89,1.1,1.27,1.27,0,0,1-2-.1,2.44,2.44,0,0,1-.09-2.41,6,6,0,0,1,.57-.88C3.92,38.7,7,34.59,10.07,30.52a3.38,3.38,0,0,0,.71-2.29c0-2.36,0-4.73,0-7.29a4.33,4.33,0,0,0-.59.52l-7.4,9.91A3.78,3.78,0,0,1,2.2,32a1.26,1.26,0,0,1-1.77-.12,2.37,2.37,0,0,1-.25-2.27A6.25,6.25,0,0,1,1,28.42c3-4,6-8.07,9.05-12.07a3.58,3.58,0,0,0,.77-2.43c0-2,0-4,0-5.95,0-.37,0-.75,0-1.34-.34.39-.59.65-.81.94-2.34,3.13-4.67,6.26-7,9.38a4.09,4.09,0,0,1-1,1.07c-.56.33-1.21,0-1.58-.67a2.47,2.47,0,0,1,0-2.17,6,6,0,0,1,.6-.86L9.57,2.64C10,2,10.47,1.34,11,.74a1.38,1.38,0,0,1,2.46,0C14.25,1.82,15,2.94,15.82,4q3.88,5.22,7.79,10.43a5.31,5.31,0,0,1,.57.88,2.26,2.26,0,0,1-.28,2.36,1.23,1.23,0,0,1-1.85,0,9.43,9.43,0,0,1-.72-.92l-6.7-9C14.37,7.46,14.1,7.13,13.76,6.7Z"/></g></g></svg>