<svg xmlns="http://www.w3.org/2000/svg" viewBox="0 0 177.93 119.72"><defs><style>.cls-1{stroke:#000;stroke-miterlimit:10;stroke-width:3px;}</style></defs><g id="Layer_2" data-name="Layer 2"><g id="Layer_1-2" data-name="Layer 1"><path class="cls-1" d="M30.52,118.21c-12.26.26-25.87-8.9-28.49-23.93C-1,76.93,9.36,65,21.25,61.14c3.41-1.1,7.22-2.22,10.63-1.75C45.14,61.22,60.8,46.21,59.47,31.91c-.8-8.5,2.64-16,9-22.13a29.26,29.26,0,0,1,46.89,33.47c-5.41,11.28-14.64,16.89-27,16.89-11.71,0-20,5.23-25.59,15.32-2.22,4-2.53,8.27-2.48,12.75A28.86,28.86,0,0,1,39,116.88C36.24,117.68,33.34,117.79,30.52,118.21Z"/><path class="cls-1" d="M176.43,89.13c.26,12.26-8.9,25.87-23.93,28.48-17.35,3-29.32-7.32-33.15-19.22-1.09-3.4-2.22-7.22-1.75-10.62,1.84-13.27-13.18-28.92-27.47-27.59-8.5.79-16-2.65-22.14-9a29.49,29.49,0,0,1-2.91-37.44,29.67,29.67,0,0,1,36.39-9.46C112.74,9.73,118.35,19,118.35,31.38c0,11.7,5.24,20,15.32,25.59,4,2.21,8.27,2.53,12.76,2.47A28.87,28.87,0,0,1,175.1,80.69C175.89,83.4,176,86.31,176.43,89.13Z"/></g></g></svg>