<svg xmlns="http://www.w3.org/2000/svg" viewBox="0 0 494.75 481.51"><defs><style>.cls-1,.cls-2,.cls-5{fill:#231f20;}.cls-1,.cls-2{stroke:#231f20;}.cls-1,.cls-3,.cls-4{stroke-miterlimit:10;}.cls-1{stroke-width:3.5px;}.cls-2,.cls-5{stroke-linejoin:round;}.cls-2{stroke-width:2px;}.cls-3{fill:none;stroke-width:6px;}.cls-3,.cls-4,.cls-5{stroke:#000;}.cls-4{stroke-width:0.5px;}.cls-5{stroke-width:1.4px;}</style></defs><g id="Layer_2" data-name="Layer 2"><g id="Layer_1-2" data-name="Layer 1"><path class="cls-1" d="M346.47,273.12a52.08,52.08,0,0,0-14.89-6.67c-5.73-1.63-9.62-3-16.12-4.24-5.31-1.19-9.09-2.39-14.31-3.59A69.91,69.91,0,0,1,287,253.87,27.37,27.37,0,0,1,276.9,246q-3.86-4.86-3.85-12.83a19.89,19.89,0,0,1,3.47-11.81,27.43,27.43,0,0,1,8.85-8,43.41,43.41,0,0,1,12.93-4.36A64.64,64.64,0,0,1,311,207.8a59,59,0,0,1,15.39,1.93,35.72,35.72,0,0,1,12.45,5.9A26.92,26.92,0,0,1,347.1,226a36.79,36.79,0,0,1,2.95,15.4h9.75q0-11.28-3.72-19.24a35.26,35.26,0,0,0-10.27-13.09,41.65,41.65,0,0,0-15.52-7.45A77.17,77.17,0,0,0,311,199.33a80.28,80.28,0,0,0-16.2,1.67,55.36,55.36,0,0,0-16,5.52,32.5,32.5,0,0,0-11.17,10.39q-4.37,6.56-4.36,16.3,0,13.6,6.67,20.66a44.39,44.39,0,0,0,16.81,10.91,142.1,142.1,0,0,0,21.08,5.77c8.49,1.85,12.08,3,18.84,5a46.66,46.66,0,0,1,16.82,8.73q6.66,5.64,6.67,16.68,0,8.46-4.11,14a28.2,28.2,0,0,1-10.39,8.59,47.5,47.5,0,0,1-13.61,4.24,88.15,88.15,0,0,1-13.73,1.15,52.44,52.44,0,0,1-16.68-2.56,39.4,39.4,0,0,1-13.47-7.57c-3.85-3.34-7.94-7.23-10.34-11.94s-4.9-9.38-6.1-16.42l-1.49-9.89s-1.42-13.87-14.16-13.86h-1c-10.63,0-13.54,12-14.34,18.75-.31,1.39-.59,2.72-.83,3.71-2.05,8.39-4.69,15.53-9.4,21.43A42.93,42.93,0,0,1,202.8,324.2q-11.43,4.74-28.36,4.74c-8.9,0-15-1.15-21.23-3.46a48.37,48.37,0,0,1-15.79-9.24,44.88,44.88,0,0,1-10.14-13.09,78.58,78.58,0,0,1-8.34-29.64q-.51-7.18-.51-12.58V171.11H107.14v89.82q0,6.17.51,14.24a85.78,85.78,0,0,0,9.5,33.75,49.79,49.79,0,0,0,11.93,15,59.19,59.19,0,0,0,19.12,10.65c7.7,2.74,15.46,4.11,26.24,4.11q20.52,0,34.26-6c9.15-4,14.41-9.07,19.89-16.08s8.54-15.73,10.86-25.14c.12-.51.23-1.09.34-1.69h0s.47-2.39.82-4.73c.54-3.54,1.53-8.24,5.5-8,3.37.21,4.23,2.38,5.42,12.7a38.47,38.47,0,0,0,.64,4,58.6,58.6,0,0,0,6,16.9,48.12,48.12,0,0,0,12.41,14.84,47.35,47.35,0,0,0,16.82,9,70.88,70.88,0,0,0,20.91,3,98.2,98.2,0,0,0,17.84-1.67,52.13,52.13,0,0,0,16.56-5.9,37.67,37.67,0,0,0,12.32-11.16q4.86-6.93,4.87-17.71,0-10.26-3.59-16.94A30.28,30.28,0,0,0,346.47,273.12Z"/><path class="cls-2" d="M244.68,234.08c0-1.25,0-2.46-.07-3.66A33.61,33.61,0,0,0,244.68,234.08Z"/><path class="cls-2" d="M180.78,181.41h0Z"/><path class="cls-2" d="M244.61,132.46c0-1.2.09-2.41.07-3.66A33.61,33.61,0,0,0,244.61,132.46Z"/><path class="cls-2" d="M304.63,181.44c.69,0,1.38,0,2.08,0h-3.44c-53.14-1.48-58.37-37.28-58.66-48.95-2,43.75-48.82,48.47-61,48.95h-1.95l1.24,0-1.24,0h1.95c12.15.48,59,5.2,61,48.95.29-11.67,5.52-47.47,58.66-48.95h3.44C306,181.47,305.32,181.45,304.63,181.44Z"/><path class="cls-2" d="M181.69,181.47h0Z"/><circle class="cls-3" cx="241.61" cy="240.76" r="237.76"/><circle class="cls-4" cx="56.57" cy="92.63" r="15.13"/><circle class="cls-4" cx="353.98" cy="449.37" r="15.13"/><circle class="cls-4" cx="479.36" cy="255.89" r="15.13"/><circle class="cls-4" cx="329.48" cy="18.13" r="15.13"/><circle class="cls-4" cx="15.38" cy="163.06" r="15.13"/><path class="cls-5" d="M396.94,181.44c0,11.75-10.47,21.34-23.45,21.34s-23.44-9.59-23.44-21.34c0-11.93,10.46-21.39,23.78-21.39C386.47,160.05,396.94,169.76,396.94,181.44Zm-43.49,0c0,10.14,9,18.49,20,18.49s20.05-8.28,20.05-18.49-9-18.55-19.77-18.55C362.42,162.89,353.45,171.05,353.45,181.44Zm21.27-12.06c6.11,0,9.44,2.35,9.44,6.74,0,2.73-1.63,4.77-4.69,5.88,3.4,1.11,4.22,2.6,4.35,7.73.14,2.41.28,3.09.68,3.83h-4.07c-.41-.62-.48-1.48-.68-4.57-.21-2.91-.62-4.08-1.84-4.83a9.08,9.08,0,0,0-4.69-.92h-5.5v10.32h-4.21V169.38Zm-7,11.44h5.77c4.35,0,6.46-1.48,6.46-4.51s-1.9-4.39-6-4.39h-6.25Z"/></g></g></svg>