<svg xmlns="http://www.w3.org/2000/svg" viewBox="0 0 433.52 297.46"><defs><style>.cls-1,.cls-2,.cls-3{fill:#231f20;}.cls-1,.cls-2{stroke:#231f20;}.cls-1{stroke-miterlimit:10;stroke-width:7px;}.cls-2,.cls-3{stroke-linejoin:round;}.cls-2{stroke-width:3px;}.cls-3{stroke:#000;stroke-width:1.9px;}</style></defs><g id="Layer_2" data-name="Layer 2"><g id="Layer_1-2" data-name="Layer 1"><path class="cls-1" d="M411.25,202.59a72.43,72.43,0,0,0-20.75-9.3c-8-2.26-13.41-4.23-22.46-5.9-7.4-1.66-12.66-3.33-19.93-5a97.59,97.59,0,0,1-19.67-6.62,38.38,38.38,0,0,1-14.13-10.91Q309,158.08,309,147a27.65,27.65,0,0,1,4.83-16.45,38.19,38.19,0,0,1,12.34-11.09c5-2.86,11.7-4.88,18-6.08a90.54,90.54,0,0,1,17.74-1.78,82.49,82.49,0,0,1,21.45,2.68,49.89,49.89,0,0,1,17.35,8.22A37.45,37.45,0,0,1,412.12,137q4.11,8.94,4.12,21.46h13.59q0-15.74-5.19-26.83a49.44,49.44,0,0,0-14.31-18.24A58.09,58.09,0,0,0,388.7,103a107.73,107.73,0,0,0-26.82-3.21,111.58,111.58,0,0,0-22.57,2.32c-7.87,1.55-16,4.11-22.31,7.69a45.14,45.14,0,0,0-15.56,14.48q-6.09,9.12-6.08,22.71,0,19,9.3,28.79A61.85,61.85,0,0,0,328.08,191c9.42,3.58,18.62,5.71,29.37,8.05,11.83,2.57,16.84,4.11,26.26,7s17.22,6.92,23.43,12.16,9.29,13,9.29,23.24q0,11.81-5.72,19.49a39.38,39.38,0,0,1-14.48,12,66.67,66.67,0,0,1-19,5.9,123.3,123.3,0,0,1-19.13,1.61,73,73,0,0,1-23.25-3.58,54.63,54.63,0,0,1-18.77-10.55c-5.37-4.65-11.06-10.07-14.4-16.63s-6.83-13.07-8.51-22.89L291.14,213s-2-19.33-19.73-19.32H270c-14.81,0-18.87,16.78-20,26.12-.43,1.93-.82,3.79-1.15,5.17-2.86,11.69-6.54,21.64-13.1,29.87a60,60,0,0,1-24.71,18.95q-15.92,6.62-39.52,6.62c-12.4,0-20.88-1.61-29.58-4.83a67.28,67.28,0,0,1-22-12.88,62.4,62.4,0,0,1-14.12-18.24,109.15,109.15,0,0,1-11.63-41.3q-.72-10-.71-17.52V60.45H77.76V185.61q0,8.58.72,19.84a118.53,118.53,0,0,0,3.93,23.25,120.16,120.16,0,0,0,9.3,23.78,69.71,69.71,0,0,0,16.63,20.92q10.55,9.12,26.64,14.84c10.73,3.81,21.54,5.72,36.56,5.72q28.61,0,47.74-8.4C232,280,239.37,272.93,247,263.16s11.9-21.92,15.12-35c.18-.71.33-1.51.48-2.35h0s.64-3.33,1.14-6.59c.74-4.94,2.13-11.48,7.65-11.15,4.71.29,5.91,3.31,7.57,17.7a55.78,55.78,0,0,0,.88,5.58,82.22,82.22,0,0,0,8.41,23.55c4.7,8.92,10.63,15.08,17.31,20.68A65.91,65.91,0,0,0,329,288.06a99.07,99.07,0,0,0,29.15,4.12A138,138,0,0,0,383,289.85a72.9,72.9,0,0,0,23.06-8.22,52.51,52.51,0,0,0,17.17-15.56q6.78-9.66,6.79-24.68,0-14.29-5-23.6A42.33,42.33,0,0,0,411.25,202.59Z"/><path class="cls-2" d="M269.42,148.19c0-1.75,0-3.43-.1-5.09A47.4,47.4,0,0,0,269.42,148.19Z"/><path class="cls-2" d="M180.38,74.81h1.27C180.83,74.8,180.38,74.81,180.38,74.81Z"/><path class="cls-2" d="M269.32,6.59c.07-1.66.12-3.35.1-5.09A47.25,47.25,0,0,0,269.32,6.59Z"/><path class="cls-2" d="M353,74.84c1,0,1.91,0,2.89,0h-4.79c-74-2.07-81.34-51.95-81.74-68.22-2.81,61-68,67.54-84.95,68.22h-2.72l1.72,0-1.72,0h2.72c16.92.68,82.14,7.26,84.95,68.22.4-16.27,7.7-66.15,81.74-68.22h4.79C354.87,74.88,353.92,74.86,353,74.84Z"/><path class="cls-2" d="M181.65,74.88h-1.27S180.83,74.89,181.65,74.88Z"/><path class="cls-3" d="M58,84.48c0,14.29-12.74,26-28.53,26S1,98.77,1,84.48c0-14.52,12.73-26,28.94-26C45.26,58.45,58,70.26,58,84.48Zm-52.92,0c0,12.34,11,22.5,24.39,22.5s24.39-10.09,24.39-22.5S43,61.91,29.8,61.91C16,61.91,5.08,71.84,5.08,84.48ZM31,69.81c7.44,0,11.49,2.86,11.49,8.2,0,3.31-2,5.79-5.7,7.15,4.13,1.35,5.12,3.16,5.29,9.4.17,2.94.33,3.76.83,4.67h-5c-.5-.76-.58-1.81-.83-5.57-.25-3.54-.75-5-2.23-5.87-1.16-.75-3.15-1.13-5.71-1.13h-6.7V99.23H17.32V69.81ZM22.44,83.73h7c5.29,0,7.86-1.81,7.86-5.49S35,72.89,30.05,72.89H22.44Z"/></g></g></svg>