<svg xmlns="http://www.w3.org/2000/svg" viewBox="0 0 398.01 329.64"><defs><style>.cls-1,.cls-2{fill:#231f20;stroke:#231f20;}.cls-1{stroke-miterlimit:10;stroke-width:7px;}.cls-2{stroke-linejoin:round;stroke-width:3px;}</style></defs><g id="Layer_2" data-name="Layer 2"><g id="Layer_1-2" data-name="Layer 1"><path class="cls-1" d="M373.67,224.72a79.79,79.79,0,0,0-23-10.32c-8.87-2.52-14.89-4.7-24.94-6.55-8.21-1.85-14-3.71-22.12-5.56a107.49,107.49,0,0,1-21.83-7.35,42.53,42.53,0,0,1-15.68-12.1q-6-7.54-6-19.85,0-10.73,5.36-18.26a42.29,42.29,0,0,1,13.7-12.31c5.55-3.17,13-5.42,20-6.75a100.62,100.62,0,0,1,19.69-2,91.54,91.54,0,0,1,23.82,3,55.12,55.12,0,0,1,19.25,9.13,41.59,41.59,0,0,1,12.71,16.07q4.56,9.93,4.56,23.82H394.3q0-17.46-5.76-29.77a54.87,54.87,0,0,0-15.88-20.25,64.36,64.36,0,0,0-24-11.51,119.44,119.44,0,0,0-29.78-3.57,123.87,123.87,0,0,0-25.05,2.58c-8.73,1.72-17.76,4.56-24.77,8.53a50.14,50.14,0,0,0-17.26,16.08Q245,147.91,245,163q0,21,10.32,31.95a68.49,68.49,0,0,0,26,16.88c10.45,4,20.67,6.34,32.59,8.93a300.46,300.46,0,0,1,29.16,7.74q15.67,4.75,26,13.5t10.32,25.8q0,13.09-6.35,21.63A43.61,43.61,0,0,1,357,302.72a73.57,73.57,0,0,1-21,6.55,136.65,136.65,0,0,1-21.24,1.79,81,81,0,0,1-25.8-4,60.73,60.73,0,0,1-20.84-11.71c-5.95-5.16-12.28-11.17-16-18.46s-7.58-14.51-9.45-25.41l-2.29-15.29s-2.2-21.45-21.91-21.44h-1.56c-16.44,0-20.95,18.62-22.18,29-.47,2.15-.91,4.21-1.28,5.75-3.18,13-7.26,24-14.54,33.14s-15.66,16.15-27.43,21-26.4,7.35-43.87,7.35c-13.76,0-23.18-1.79-32.83-5.36a74.81,74.81,0,0,1-24.42-14.29,69.69,69.69,0,0,1-15.68-20.25,121.14,121.14,0,0,1-12.9-45.85q-.8-11.1-.79-19.45V66.93H3.5V205.86q0,9.52.8,22A131.08,131.08,0,0,0,8.66,253.7,132.49,132.49,0,0,0,19,280.09a77.34,77.34,0,0,0,18.46,23.23Q49.14,313.45,67,319.79c11.9,4.23,23.9,6.35,40.57,6.35q31.75,0,53-9.33c14.15-6.21,22.29-14,30.76-24.87s13.22-24.32,16.79-38.88c.2-.78.37-1.67.54-2.61h0s.72-3.69,1.27-7.31c.82-5.48,2.36-12.75,8.49-12.37,5.23.31,6.56,3.67,8.4,19.64a59.46,59.46,0,0,0,1,6.19,91,91,0,0,0,9.34,26.15c5.22,9.9,11.8,16.73,19.21,22.95a73.28,73.28,0,0,0,26,13.89,110,110,0,0,0,32.35,4.57,153,153,0,0,0,27.59-2.58,81.2,81.2,0,0,0,25.61-9.13A58.33,58.33,0,0,0,387,295.18q7.54-10.73,7.54-27.39,0-15.87-5.55-26.2A46.76,46.76,0,0,0,373.67,224.72Z"/><path class="cls-2" d="M216.25,164.32c0-1.93,0-3.8-.12-5.64A50.18,50.18,0,0,0,216.25,164.32Z"/><path class="cls-2" d="M117.4,82.87h1.42C117.91,82.86,117.4,82.87,117.4,82.87Z"/><path class="cls-2" d="M216.13,7.15c.08-1.84.14-3.72.12-5.65A50.3,50.3,0,0,0,216.13,7.15Z"/><path class="cls-2" d="M309,82.91c1.07,0,2.13,0,3.22,0h-5.33c-82.19-2.29-90.28-57.66-90.73-75.72-3.12,67.67-75.51,75-94.3,75.72h-3l1.9,0c-.76,0-1.39,0-1.9,0h3c18.79.75,91.18,8.06,94.3,75.73.45-18.07,8.54-73.43,90.73-75.73h5.33C311.1,83,310,82.93,309,82.91Z"/><path class="cls-2" d="M118.82,83h0Z"/></g></g></svg>