<svg xmlns="http://www.w3.org/2000/svg" viewBox="0 0 483.26 481.51"><defs><style>.cls-1,.cls-2,.cls-5{fill:#231f20;}.cls-1,.cls-2{stroke:#231f20;}.cls-1,.cls-3,.cls-4{stroke-miterlimit:10;}.cls-1{stroke-width:3px;}.cls-2,.cls-5{stroke-linejoin:round;}.cls-2{stroke-width:2px;}.cls-3{fill:none;stroke-width:6px;}.cls-3,.cls-4,.cls-5{stroke:#000;}.cls-4{stroke-width:0.5px;}</style></defs><g id="Layer_2" data-name="Layer 2"><g id="Layer_1-2" data-name="Layer 1"><path class="cls-1" d="M318.48,260a35.6,35.6,0,0,0-10.23-4.58,103,103,0,0,0-11.08-2.91c-3.65-.82-6.24-1.65-9.83-2.47a48,48,0,0,1-9.7-3.26,18.92,18.92,0,0,1-7-5.38A13.77,13.77,0,0,1,268,232.6a13.62,13.62,0,0,1,2.38-8.11A18.87,18.87,0,0,1,276.5,219a30,30,0,0,1,8.88-3,45.24,45.24,0,0,1,8.75-.88,40.83,40.83,0,0,1,10.58,1.32,24.6,24.6,0,0,1,8.56,4.06,18.36,18.36,0,0,1,5.64,7.14,25.21,25.21,0,0,1,2,10.58h6.7A30.93,30.93,0,0,0,325.08,225a24.29,24.29,0,0,0-7.05-9,28.68,28.68,0,0,0-10.67-5.11,53,53,0,0,0-13.23-1.59A54.63,54.63,0,0,0,283,210.47a37.62,37.62,0,0,0-11,3.79,22.22,22.22,0,0,0-7.67,7.14,19.75,19.75,0,0,0-3,11.2q0,9.35,4.58,14.2a30.51,30.51,0,0,0,11.56,7.49,97.37,97.37,0,0,0,14.48,4c5.83,1.27,8.3,2,12.95,3.44a32.06,32.06,0,0,1,11.55,6q4.59,3.87,4.59,11.46a15.67,15.67,0,0,1-2.83,9.61,19.37,19.37,0,0,1-7.14,5.91,32.8,32.8,0,0,1-9.35,2.91,60.45,60.45,0,0,1-9.43.79,35.85,35.85,0,0,1-11.46-1.76,27,27,0,0,1-9.26-5.2c-2.65-2.3-5.46-5-7.1-8.2a36.51,36.51,0,0,1-4.2-11.29l-1-6.8s-1-9.53-9.73-9.52h-.7c-7.3,0-9.3,8.28-9.85,12.88-.21,1-.4,1.87-.57,2.56-1.41,5.76-3.22,10.67-6.46,14.72a29.42,29.42,0,0,1-12.18,9.35q-7.86,3.27-19.49,3.26A39.19,39.19,0,0,1,185.68,296a33.25,33.25,0,0,1-10.85-6.35,30.71,30.71,0,0,1-7-9,53.7,53.7,0,0,1-5.73-20.37q-.36-4.94-.36-8.64V189.93H154v61.72q0,4.23.36,9.78a59.28,59.28,0,0,0,6.52,23.2,34.37,34.37,0,0,0,8.2,10.31,40.7,40.7,0,0,0,13.14,7.32,50.94,50.94,0,0,0,18,2.82q14.1,0,23.54-4.14c6.29-2.76,9.91-6.23,13.67-11.05s5.87-10.81,7.46-17.27c.08-.35.16-.75.24-1.16h0s.32-1.65.56-3.25c.37-2.44,1-5.66,3.78-5.5,2.32.14,2.91,1.63,3.73,8.73a24.6,24.6,0,0,0,.43,2.75,40.42,40.42,0,0,0,4.15,11.61,33.11,33.11,0,0,0,8.53,10.2,32.63,32.63,0,0,0,11.56,6.17,48.83,48.83,0,0,0,14.37,2,68.49,68.49,0,0,0,12.26-1.14A36,36,0,0,0,315.92,299a26,26,0,0,0,8.47-7.67q3.35-4.77,3.35-12.17a24.48,24.48,0,0,0-2.47-11.64A20.82,20.82,0,0,0,318.48,260Z"/><path class="cls-2" d="M248.54,233.19c0-.86,0-1.69,0-2.51A23,23,0,0,0,248.54,233.19Z"/><path class="cls-2" d="M204.63,197h0Z"/><path class="cls-2" d="M248.49,163.37c0-.82.06-1.65,0-2.51A23,23,0,0,0,248.49,163.37Z"/><path class="cls-2" d="M289.73,197l1.43,0H288.8c-36.52-1-40.11-25.62-40.31-33.64-1.39,30.06-33.55,33.3-41.9,33.64h-1.34c.23,0,.51,0,.85,0h.49c8.35.34,40.51,3.58,41.9,33.64.2-8,3.79-32.62,40.31-33.64h.93Z"/><path class="cls-2" d="M205.25,197h-.62S204.85,197.05,205.25,197Z"/><circle class="cls-3" cx="241.61" cy="240.76" r="237.76"/><circle class="cls-3" cx="241.61" cy="240.72" r="177.12"/><circle class="cls-4" cx="56.57" cy="92.63" r="15.13"/><circle class="cls-4" cx="353.98" cy="449.37" r="15.13"/><circle class="cls-4" cx="118.25" cy="366.98" r="15.13"/><circle class="cls-4" cx="467.88" cy="311.89" r="15.13"/><circle class="cls-4" cx="242.74" cy="63.6" r="15.13"/><circle class="cls-4" cx="15.38" cy="163.06" r="15.13"/><path class="cls-5" d="M353.16,197c0,8.07-7.19,14.66-16.11,14.66S320.94,205.1,320.94,197s7.19-14.71,16.34-14.71C346,182.32,353.16,189,353.16,197Zm-29.88,0c0,7,6.21,12.7,13.77,12.7S350.83,204,350.83,197s-6.17-12.75-13.59-12.75C329.44,184.28,323.28,189.89,323.28,197Zm14.61-8.29c4.2,0,6.49,1.62,6.49,4.63,0,1.87-1.12,3.27-3.22,4,2.33.76,2.89,1.78,3,5.31a5.87,5.87,0,0,0,.46,2.64h-2.8c-.28-.43-.32-1-.46-3.15s-.42-2.8-1.26-3.31a6.24,6.24,0,0,0-3.23-.64h-3.78v7.1h-2.89V188.74Zm-4.81,7.86h4c3,0,4.44-1,4.44-3.1s-1.31-3-4.11-3h-4.3Z"/></g></g></svg>