<svg xmlns="http://www.w3.org/2000/svg" viewBox="0 0 1822.35 847.78"><defs><style>.cls-1,.cls-2,.cls-3{fill:#231f20;stroke:#231f20;}.cls-1,.cls-2{stroke-miterlimit:10;}.cls-1{stroke-width:5px;}.cls-2{stroke-width:19px;}.cls-3{stroke-linejoin:round;stroke-width:4px;}</style></defs><g id="Layer_2" data-name="Layer 2"><g id="Layer_1-2" data-name="Layer 1"><path class="cls-1" d="M1819.85,234c0,40.37-36,73.3-80.55,73.3-44.36,0-80.55-32.93-80.55-73.3,0-41,36-73.51,81.72-73.51C1783.89,160.48,1819.85,193.84,1819.85,234Zm-149.42,0c0,34.84,31,63.52,68.87,63.52,38.06,0,68.87-28.47,68.87-63.52,0-34.84-30.81-63.73-67.94-63.73C1701.24,170.26,1670.43,198.3,1670.43,234Zm73.07-41.43c21,0,32.45,8.08,32.45,23.16,0,9.35-5.6,16.36-16.11,20.18,11.68,3.83,14.48,8.92,15,26.56.46,8.28.93,10.62,2.33,13.17h-14c-1.4-2.12-1.63-5.1-2.33-15.72-.7-10-2.1-14-6.31-16.57-3.26-2.13-8.87-3.19-16.1-3.19h-18.92v35.48H1705V192.56Zm-24,39.31h19.85c14.94,0,22.18-5.1,22.18-15.51s-6.54-15.09-20.55-15.09h-21.48Z"/><path class="cls-2" d="M1503.5,787.15q-13.3,0-20.46-5.62a30.67,30.67,0,0,1-10.22-14.83,74.75,74.75,0,0,1-3.58-20.45q-.52-11.25-.51-22.5V418q0-60.32-43.47-97.66c-29-24.87-89.93-37.32-153.33-37.32s-124.15,14.49-158.57,43.46q-49.6,41.76-55.29,123.63H1097q5.7-65.48,47-98.58c29-23.16,78.8-34.76,125.84-34.76,26.59,0,60.91,2.73,79.32,8.18s36.34,13,48,22.49,20.1,20.46,25.56,32.73a97.12,97.12,0,0,1,8.18,39.88q0,27.6-3.07,46t-15.34,30.17q-12.26,11.77-36.3,18.41t-66,9.71l-60.34,5.12a611.3,611.3,0,0,0-66,10.22,199.47,199.47,0,0,0-62.38,24q-28.14,16.88-46.53,46t-18.41,75.16q0,75.69,46,112t129.87,36.31q37.82,0,69.54-9.21a210.48,210.48,0,0,0,56.75-25.56,188.13,188.13,0,0,0,42.43-37.33,161.58,161.58,0,0,0,26.59-44.48h2V744.2a165.54,165.54,0,0,0,2.55,30.17,60.35,60.35,0,0,0,9.72,24q7.14,10.23,21,16.36t37.33,6.13a122,122,0,0,0,31.7-4.09V784.08Q1513.73,787.16,1503.5,787.15Zm-73.63-166.68q0,10.23-5.63,39.37t-26.07,60.33q-20.48,31.2-59.31,55.22t-105.33,24q-64.42,0-101.24-28.12t-36.81-86.41q0-36.81,14.32-59.82a105.61,105.61,0,0,1,37.32-36.3,166.65,166.65,0,0,1,51.64-18.92q28.62-5.61,57.27-8.69l65.44-6.14a540.19,540.19,0,0,0,64.94-9.2q29.14-6.14,43.46-23.52Z"/><path class="cls-2" d="M963.07,577Q938,560.14,903.76,550.42c-22.85-6.47-38.35-12.1-64.25-16.87-21.14-4.77-36.19-9.54-57-14.32a277.27,277.27,0,0,1-56.24-18.92q-25.08-11.74-40.4-31.19T670.56,418q0-27.6,13.8-47a109.09,109.09,0,0,1,35.28-31.7c14.32-8.18,33.46-14,51.53-17.38s33-5.12,50.73-5.12a236.05,236.05,0,0,1,61.35,7.68q28.62,7.67,49.6,23.51t32.72,41.42q11.74,25.58,11.76,61.36h38.86q0-45-14.83-76.7t-40.9-52.15q-26.07-20.44-61.86-29.66a307.57,307.57,0,0,0-76.7-9.2c-22.5,0-42,2.22-64.54,6.65s-45.74,11.76-63.79,22a129.19,129.19,0,0,0-44.49,41.42Q631.68,379.13,631.7,418q0,54.21,26.58,82.32t67,43.46c26.92,10.23,53.24,16.33,84,23,33.83,7.35,48.16,11.76,75.1,19.94s49.24,19.78,67,34.77S977.9,658.65,977.9,688q0,33.74-16.37,55.73a112.37,112.37,0,0,1-41.41,34.25,189.68,189.68,0,0,1-54.2,16.88,351.53,351.53,0,0,1-54.71,4.6q-35.81,0-66.47-10.23A156.48,156.48,0,0,1,691.05,759c-15.33-13.3-31.62-28.78-41.16-47.54S630.37,674.11,625.55,646l-5.91-39.39s-5.67-55.26-56.43-55.22h-4c-42.35,0-53.95,48-57.12,74.69-1.23,5.53-2.34,10.85-3.31,14.8-8.18,33.41-18.69,61.87-37.44,85.38S421,767.89,390.64,780.5s-68,18.92-113,18.92c-35.46,0-59.71-4.6-84.59-13.81s-45.86-21.47-62.89-36.81a178.78,178.78,0,0,1-40.39-52.15A312.14,312.14,0,0,1,56.54,578.54q-2.05-28.62-2-50.11V170.56H9.5V528.43q0,24.54,2.05,56.76A342.84,342.84,0,0,0,49.38,719.66a199.44,199.44,0,0,0,47.55,59.82q30.15,26.07,76.19,42.44c30.67,10.89,61.58,16.36,104.53,16.36q81.8,0,136.51-24c36.46-16,57.43-36.11,79.25-64.07s34-62.65,43.25-100.15c.5-2,1-4.33,1.37-6.73h0s1.85-9.52,3.26-18.85c2.14-14.11,6.1-32.82,21.9-31.86,13.45.82,16.88,9.47,21.63,50.59a153.71,153.71,0,0,0,2.52,16c4.51,25.14,13.84,47.94,24.06,67.35,13.44,25.51,30.39,43.12,49.48,59.12s41.41,28,67,35.8,53.34,11.76,83.34,11.76a395.33,395.33,0,0,0,71.07-6.65q36.3-6.66,66-23.52a150.14,150.14,0,0,0,49.09-44.48q19.41-27.62,19.42-70.56,0-40.89-14.31-67.49A120.78,120.78,0,0,0,963.07,577Z"/><rect class="cls-2" x="1572.66" y="170.56" width="38.85" height="650.33"/><path class="cls-3" d="M557.53,421.44c.05-5-.08-9.81-.3-14.55A135.3,135.3,0,0,0,557.53,421.44Z"/><path class="cls-3" d="M302.92,211.62h3.63C304.22,211.59,302.92,211.62,302.92,211.62Z"/><path class="cls-3" d="M557.23,16.55c.22-4.75.35-9.57.3-14.55A135.3,135.3,0,0,0,557.23,16.55Z"/><path class="cls-3" d="M796.39,211.72c2.74-.05,5.48-.1,8.29-.1H791C579.24,205.71,558.39,63.08,557.23,16.55c-8,174.31-194.51,193.13-242.91,195.07h-7.77c1.32,0,2.95,0,4.92.1-2,.06-3.6.09-4.92.1h7.77c48.4,1.94,234.88,20.75,242.91,195.07,1.16-46.53,22-189.16,233.73-195.07h13.72C801.87,211.82,799.13,211.76,796.39,211.72Z"/><path class="cls-3" d="M306.55,211.82h-3.63S304.22,211.84,306.55,211.82Z"/></g></g></svg>